<svg width="486" height="485" viewBox="0 0 486 485" fill="none" xmlns="http://www.w3.org/2000/svg">
<path d="M366.103 147.857C350.728 125.178 337.973 96.8156 313.112 82.7991C277.755 62.8656 243.766 89.9674 215.142 109.096C200.107 119.135 184.102 129.592 165.885 132.502C139.831 136.673 113.369 125.14 87.5383 132.201C43.8883 144.132 31.9476 197.191 46.6237 234.895C66.9937 287.275 112.584 343.535 121.314 386.215C130.044 428.895 170.784 458.965 240.624 439.565C310.464 420.165 306.584 375.545 368.664 365.845C430.744 356.145 460.814 311.525 450.144 255.265C444.896 227.572 427.882 207.25 405.756 190.935C389.926 179.295 377.103 164.075 366.103 147.857Z" fill="#A343BA"/>
<g opacity="0.7">
<path d="M366.103 147.857C350.728 125.178 337.973 96.8156 313.112 82.7991C277.755 62.8656 243.766 89.9674 215.142 109.096C200.107 119.135 184.102 129.592 165.885 132.502C139.831 136.673 113.369 125.14 87.5383 132.201C43.8883 144.132 31.9476 197.191 46.6237 234.895C66.9937 287.275 112.584 343.535 121.314 386.215C130.044 428.895 170.784 458.965 240.624 439.565C310.464 420.165 306.584 375.545 368.664 365.845C430.744 356.145 460.814 311.525 450.144 255.265C444.896 227.572 427.882 207.25 405.756 190.935C389.926 179.295 377.103 164.075 366.103 147.857Z" fill="white"/>
</g>
<path d="M119.732 59.0927C119.732 59.0927 124.883 55.0285 126.202 52.4192C127.327 50.1979 128.142 47.0551 126.978 44.6592C126.722 44.0958 126.35 43.5925 125.887 43.1819C125.424 42.7714 124.88 42.4629 124.29 42.2763C123.7 42.0897 123.078 42.0292 122.463 42.0988C121.848 42.1684 121.255 42.3666 120.721 42.6804C117.549 44.6204 117.21 51.4103 118.015 54.6114C118.083 54.8926 119.683 59.1703 119.732 59.0927Z" fill="#A343BA"/>
<path d="M72.1345 92.9749C72.3382 93.1689 76.0145 95.8267 76.0145 95.7588C76.0145 95.6909 78.1 89.5314 77.7508 86.6311C77.4598 84.1576 76.4025 81.0827 74.1327 79.7538C73.6088 79.4215 73.0209 79.2032 72.4072 79.113C71.7934 79.0227 71.1675 79.0626 70.5702 79.23C69.9728 79.3974 69.4174 79.6886 68.9399 80.0847C68.4624 80.4807 68.0736 80.9728 67.7986 81.5289C66.2466 84.9239 69.6707 90.7148 72.1345 92.9749Z" fill="#A343BA"/>
<path d="M180.018 65.252C180.018 65.252 161.171 84.7102 161.268 108.64C161.365 132.57 180.396 151.834 180.396 151.834C180.396 151.834 199.243 132.376 199.137 108.475C199.03 84.5744 180.018 65.252 180.018 65.252Z" fill="#A343BA"/>
<path d="M153.139 122.928C153.39 122.659 153.621 122.37 153.828 122.065C155.195 119.989 156.369 116.963 155.486 114.48C155.299 113.889 154.99 113.344 154.578 112.881C154.167 112.418 153.663 112.046 153.098 111.79C152.534 111.534 151.922 111.399 151.303 111.395C150.683 111.39 150.07 111.516 149.502 111.764C146.941 112.976 145.68 117.079 145.408 120.435C144.438 120.203 143.468 120.018 142.682 119.892C142.343 119.126 142.003 118.36 141.654 117.593C141.305 116.827 141.024 115.993 140.684 115.188C140.228 113.995 139.821 112.743 139.414 111.492C140.907 110.823 145.234 108.795 146.863 107.001C148.493 105.206 150.151 102.345 149.657 99.755C149.562 99.1418 149.339 98.5554 149.003 98.0341C148.666 97.5128 148.224 97.0683 147.704 96.7296C147.184 96.3909 146.598 96.1657 145.986 96.0686C145.373 95.9715 144.746 96.0047 144.147 96.166C140.568 97.2233 138.463 103.625 138.395 106.952C138.395 107.059 138.395 107.767 138.521 108.611C138.162 107.37 137.794 106.147 137.474 104.886C136.552 101.307 135.728 97.6307 134.884 93.9544C134.709 93.1881 134.525 92.4218 134.34 91.6555C135.601 91.1026 140.325 88.9395 142.023 87.0674C143.72 85.1953 145.301 82.4114 144.807 79.8215C144.714 79.2076 144.492 78.6203 144.156 78.0982C143.819 77.5761 143.377 77.131 142.856 76.792C142.336 76.4531 141.75 76.228 141.137 76.1316C140.523 76.0352 139.896 76.0696 139.297 76.2325C135.728 77.2898 133.623 83.6918 133.545 87.0189C133.545 87.145 133.613 87.9889 133.7 88.9589C133.215 86.9607 132.73 84.9819 132.139 83.0322C131.186 79.685 130.01 76.4055 128.617 73.2158C129.064 73.0218 134.651 70.6065 136.533 68.521C138.201 66.6683 139.821 63.8553 139.326 61.2654C139.23 60.6529 139.007 60.0673 138.67 59.5468C138.333 59.0263 137.89 58.5825 137.371 58.244C136.851 57.9056 136.266 57.6802 135.654 57.5824C135.042 57.4846 134.416 57.5166 133.817 57.6764C130.237 58.7434 128.132 65.1357 128.065 68.4725C128.065 68.7053 128.336 71.7511 128.472 72.8375V72.7211C127.027 69.6202 125.309 66.6533 123.341 63.8553C121.595 61.3507 119.703 58.9507 117.676 56.6676C115.823 54.5239 113.99 52.6809 112.351 51.061C111.468 50.188 110.634 49.412 109.848 48.6942H109.926C109.993 48.6942 108.18 44.5329 108.044 44.2807C106.366 41.3707 101.438 36.802 97.7909 37.5974C97.1869 37.7462 96.621 38.0206 96.1303 38.4029C95.6396 38.7851 95.235 39.2666 94.943 39.8159C94.651 40.3651 94.4781 40.9698 94.4356 41.5904C94.3932 42.2109 94.4821 42.8335 94.6966 43.4174C95.5114 45.92 98.2856 47.6175 100.643 48.4226C103 49.2277 108.325 48.8591 109.625 48.7427C110.43 49.4993 111.274 50.3238 112.186 51.255C113.776 52.9137 115.561 54.7858 117.365 56.9586C117.85 57.5406 118.335 58.1808 118.83 58.7919C117.792 57.9286 116.347 56.7743 116.192 56.6773C113.379 54.8828 106.889 53.0786 104.018 55.4648C103.553 55.8748 103.179 56.3781 102.921 56.942C102.663 57.5059 102.526 58.1178 102.519 58.738C102.513 59.3582 102.637 59.9728 102.884 60.5419C103.13 61.111 103.494 61.6219 103.95 62.0414C105.822 63.8844 109.062 64.1075 111.526 63.7486C113.99 63.3897 118.694 60.4991 119.684 59.8686C120.751 61.246 121.818 62.6816 122.836 64.2433C124.713 67.0452 126.336 70.009 127.686 73.0994C127.764 73.2837 127.822 73.4777 127.89 73.6523C127.453 73.1382 124.834 70.4901 124.621 70.3252C122.021 68.2397 115.775 65.7371 112.661 67.7935C112.152 68.1485 111.723 68.6069 111.404 69.1387C111.084 69.6705 110.88 70.2638 110.805 70.8798C110.729 71.4959 110.785 72.1208 110.968 72.7139C111.151 73.3069 111.457 73.8548 111.866 74.3216C113.524 76.3586 116.716 76.9406 119.208 76.8436C122.118 76.7466 127.725 73.9336 127.938 73.7881C129.211 76.9061 130.277 80.1043 131.13 83.362C131.77 85.7676 132.323 88.212 132.856 90.7146C132.274 90.055 129.83 87.6009 129.636 87.436C127.036 85.3505 120.79 82.8479 117.666 84.9043C117.158 85.2603 116.731 85.7191 116.412 86.2509C116.093 86.7827 115.889 87.3756 115.814 87.9912C115.739 88.6068 115.795 89.2313 115.977 89.8241C116.159 90.417 116.463 90.9649 116.871 91.4324C118.539 93.4694 121.721 94.0514 124.223 93.9544C127.017 93.8574 132.449 91.1511 132.953 90.9183C133.196 92.0435 133.438 93.1687 133.671 94.3036C134.437 97.9896 135.184 101.695 136.028 105.323C136.329 106.584 136.659 107.816 136.998 109.048C136.086 108.078 134.389 106.38 134.234 106.254C131.634 104.159 125.378 101.656 122.264 103.713C121.755 104.068 121.326 104.526 121.007 105.058C120.687 105.59 120.483 106.183 120.408 106.799C120.332 107.415 120.388 108.04 120.571 108.633C120.754 109.226 121.06 109.774 121.469 110.241C123.127 112.287 126.319 112.86 128.811 112.772C131.304 112.685 135.922 110.503 137.212 109.862C137.784 111.909 138.385 113.927 139.084 115.886C139.404 116.72 139.666 117.593 140.054 118.379L140.587 119.63L139.86 119.562C139.86 119.562 139.86 120.736 139.928 122.628C137.183 120.688 133.225 118.99 130.654 120.174C130.098 120.448 129.606 120.837 129.21 121.315C128.814 121.792 128.523 122.348 128.356 122.945C128.188 123.542 128.148 124.168 128.239 124.782C128.329 125.396 128.547 125.984 128.879 126.508C129.045 126.787 129.236 127.05 129.452 127.293C129.94 130.189 131.162 132.911 133.002 135.199C133.138 135.354 135 137.081 135.98 137.934C135.01 137.43 134.098 136.964 133.128 136.373C131.731 135.597 130.276 134.733 128.86 133.899L126.6 132.454C125.853 131.998 125.193 131.484 124.476 130.979C123.438 130.232 122.409 129.418 121.381 128.593C122.254 127.216 124.757 123.132 125.125 120.746C125.494 118.36 125.29 115.042 123.447 113.16C123.033 112.699 122.525 112.331 121.959 112.078C121.392 111.826 120.779 111.696 120.159 111.696C119.539 111.696 118.926 111.826 118.359 112.078C117.793 112.331 117.286 112.699 116.871 113.16C114.475 116.07 116.25 122.521 118.025 125.344C118.083 125.431 118.52 125.994 118.995 126.643C118.025 125.819 117.055 124.994 116.085 124.121C113.35 121.638 110.634 119.029 107.898 116.429L106.23 114.848C106.977 113.694 109.722 109.29 110.11 106.797C110.498 104.304 110.275 101.094 108.441 99.2021C108.027 98.7411 107.52 98.3724 106.953 98.12C106.387 97.8677 105.773 97.7373 105.153 97.7373C104.533 97.7373 103.92 97.8677 103.353 98.12C102.787 98.3724 102.28 98.7411 101.865 99.2021C99.469 102.112 101.244 108.553 103.019 111.376C103.077 111.482 103.601 112.142 104.193 112.879C102.689 111.492 101.176 110.115 99.6242 108.805C96.9829 106.539 94.1928 104.452 91.2725 102.558C91.5344 102.151 94.8615 97.0487 95.2883 94.2745C95.6569 91.8107 95.4532 88.5709 93.6102 86.6891C93.1963 86.2283 92.69 85.8598 92.1243 85.6075C91.5586 85.3552 90.9461 85.2248 90.3267 85.2248C89.7073 85.2248 89.0949 85.3552 88.5291 85.6075C87.9634 85.8598 87.4572 86.2283 87.0433 86.6891C84.6377 89.5991 86.4128 96.0496 88.1879 98.8723C88.314 99.0663 90.2346 101.462 90.9427 102.287L90.836 102.219C87.9232 100.425 84.8554 98.896 81.6695 97.6501C78.8181 96.5125 75.9032 95.5408 72.9395 94.7401C70.2041 93.9738 67.6627 93.45 65.4123 92.9941C64.1804 92.7613 63.0649 92.577 62.0076 92.4024H62.0755C62.124 92.4024 58.3216 89.8901 58.0597 89.764C55.0818 88.2799 48.4373 87.1741 45.828 89.8416C45.4081 90.2981 45.0889 90.8377 44.8911 91.4255C44.6933 92.0134 44.6214 92.6362 44.6799 93.2536C44.7384 93.8711 44.9262 94.4693 45.2309 95.0095C45.5357 95.5497 45.9506 96.0197 46.4488 96.3891C48.5149 98.0284 51.7547 97.912 54.2088 97.2912C56.6629 96.6704 60.8533 93.4112 61.8718 92.5964C62.9582 92.7904 64.1222 93.0135 65.4026 93.2851C67.6433 93.7798 70.1653 94.3618 72.8619 95.2251C73.5894 95.4482 74.3557 95.7101 75.1026 95.9429C73.7543 95.8071 71.9113 95.6325 71.727 95.6325C68.3999 95.7004 62.027 97.7665 60.9115 101.346C60.7469 101.944 60.7103 102.569 60.8042 103.182C60.8981 103.795 61.1204 104.381 61.4564 104.902C61.7925 105.423 62.2347 105.867 62.7543 106.205C63.2738 106.544 63.859 106.769 64.4714 106.865C67.0613 107.37 69.884 105.769 71.7367 104.11C73.5894 102.452 75.9174 97.4464 76.4024 96.3503C78.0514 96.9032 79.7295 97.5143 81.4367 98.2903C84.5542 99.5909 87.5503 101.165 90.3898 102.995C90.5547 103.102 90.7099 103.237 90.8748 103.344C90.2249 103.16 86.5777 102.374 86.3158 102.374C82.9984 102.064 76.4024 103.422 74.9377 106.855C74.7079 107.43 74.6018 108.047 74.6263 108.665C74.6508 109.283 74.8054 109.89 75.08 110.444C75.3546 110.999 75.7429 111.49 76.2198 111.884C76.6967 112.278 77.2514 112.568 77.8477 112.734C80.3697 113.519 83.3476 112.239 85.3749 110.794C87.7126 109.125 90.8457 103.625 90.9621 103.422C93.7429 105.322 96.3966 107.403 98.9064 109.649C100.769 111.308 102.592 113.054 104.406 114.829C103.553 114.606 100.167 113.859 99.9152 113.859C96.5978 113.548 90.0018 114.906 88.5371 118.34C88.3088 118.916 88.2039 119.533 88.229 120.151C88.2542 120.77 88.409 121.376 88.6833 121.931C88.9575 122.486 89.3453 122.977 89.8214 123.373C90.2974 123.769 90.8513 124.06 91.4471 124.228C93.9691 125.014 96.947 123.733 98.9743 122.288C101.254 120.659 104.28 115.411 104.542 114.965L107.006 117.39C109.673 120.047 112.341 122.725 115.057 125.285C116.027 126.168 116.997 127.012 117.909 127.856C116.619 127.565 114.261 127.07 114.029 127.051C110.702 126.75 104.115 128.108 102.641 131.542C102.413 132.117 102.308 132.733 102.333 133.351C102.358 133.969 102.513 134.574 102.788 135.129C103.062 135.683 103.45 136.173 103.926 136.568C104.402 136.963 104.955 137.253 105.551 137.42C108.063 138.206 111.051 136.925 113.078 135.48C115.105 134.035 117.753 129.66 118.481 128.428C120.081 129.815 121.701 131.164 123.331 132.415C124.058 132.939 124.767 133.521 125.494 133.986L127.638 135.422C129.132 136.392 130.548 137.216 131.945 138.041C132.653 138.468 133.332 138.846 134.03 139.253C132.769 138.759 130.761 138.012 130.567 137.963C127.337 137.158 120.605 137.498 118.636 140.67C118.324 141.205 118.127 141.801 118.06 142.418C117.994 143.034 118.057 143.658 118.248 144.248C118.438 144.839 118.751 145.382 119.165 145.844C119.58 146.305 120.087 146.674 120.654 146.926C123.021 148.09 126.163 147.275 128.414 146.15C130.858 144.909 134.544 140.33 134.99 139.787C136.707 140.757 138.385 141.727 139.966 142.542C144.196 144.812 147.891 146.616 150.753 147.954C160.065 156.005 173.17 156.898 173.17 156.898C173.17 156.898 173.858 141.203 164.624 130.873C161.42 127.42 157.5 124.709 153.139 122.928ZM136.523 138.225C136.814 137.585 139.045 132.599 139.2 129.786C139.714 129.689 140.238 129.583 140.742 129.466C141.698 134.429 143.68 139.137 146.562 143.289C144.865 142.484 143.032 141.591 141.092 140.602C139.598 139.865 138.075 139.069 136.523 138.225Z" fill="#A343BA"/>
<path d="M221.806 119.921C221.806 119.921 206.101 120.406 196.489 130.388C186.876 140.369 187.002 156.083 187.002 156.083C187.002 156.083 202.706 155.598 212.309 145.617C221.912 135.635 221.806 119.921 221.806 119.921Z" fill="#A343BA"/>
<g opacity="0.5">
<path d="M119.732 59.0927C119.732 59.0927 124.883 55.0285 126.202 52.4192C127.327 50.1979 128.142 47.0551 126.978 44.6592C126.722 44.0958 126.35 43.5925 125.887 43.1819C125.424 42.7714 124.88 42.4629 124.29 42.2763C123.7 42.0897 123.078 42.0292 122.463 42.0988C121.848 42.1684 121.255 42.3666 120.721 42.6804C117.549 44.6204 117.21 51.4103 118.015 54.6114C118.083 54.8926 119.683 59.1703 119.732 59.0927Z" fill="white"/>
<path d="M72.1345 92.9749C72.3382 93.1689 76.0145 95.8267 76.0145 95.7588C76.0145 95.6909 78.1 89.5314 77.7508 86.6311C77.4598 84.1576 76.4025 81.0827 74.1327 79.7538C73.6088 79.4215 73.0209 79.2032 72.4072 79.113C71.7934 79.0227 71.1675 79.0626 70.5702 79.23C69.9728 79.3974 69.4174 79.6886 68.9399 80.0847C68.4624 80.4807 68.0736 80.9728 67.7986 81.5289C66.2466 84.9239 69.6707 90.7148 72.1345 92.9749Z" fill="white"/>
<path d="M180.018 65.252C180.018 65.252 161.171 84.7102 161.268 108.64C161.365 132.57 180.396 151.834 180.396 151.834C180.396 151.834 199.243 132.376 199.137 108.475C199.03 84.5744 180.018 65.252 180.018 65.252Z" fill="white"/>
<path d="M153.139 122.928C153.39 122.659 153.621 122.37 153.828 122.065C155.195 119.989 156.369 116.963 155.486 114.48C155.299 113.889 154.99 113.344 154.578 112.881C154.167 112.418 153.663 112.046 153.098 111.79C152.534 111.534 151.922 111.399 151.303 111.395C150.683 111.39 150.07 111.516 149.502 111.764C146.941 112.976 145.68 117.079 145.408 120.435C144.438 120.203 143.468 120.018 142.682 119.892C142.343 119.126 142.003 118.36 141.654 117.593C141.305 116.827 141.024 115.993 140.684 115.188C140.228 113.995 139.821 112.743 139.414 111.492C140.907 110.823 145.234 108.795 146.863 107.001C148.493 105.206 150.151 102.345 149.657 99.755C149.562 99.1418 149.339 98.5554 149.003 98.0341C148.666 97.5128 148.224 97.0683 147.704 96.7296C147.184 96.3909 146.598 96.1657 145.986 96.0686C145.373 95.9715 144.746 96.0047 144.147 96.166C140.568 97.2233 138.463 103.625 138.395 106.952C138.395 107.059 138.395 107.767 138.521 108.611C138.162 107.37 137.794 106.147 137.474 104.886C136.552 101.307 135.728 97.6307 134.884 93.9544C134.709 93.1881 134.525 92.4218 134.34 91.6555C135.601 91.1026 140.325 88.9395 142.023 87.0674C143.72 85.1953 145.301 82.4114 144.807 79.8215C144.714 79.2076 144.492 78.6203 144.156 78.0982C143.819 77.5761 143.377 77.131 142.856 76.792C142.336 76.4531 141.75 76.228 141.137 76.1316C140.523 76.0352 139.896 76.0696 139.297 76.2325C135.728 77.2898 133.623 83.6918 133.545 87.0189C133.545 87.145 133.613 87.9889 133.7 88.9589C133.215 86.9607 132.73 84.9819 132.139 83.0322C131.186 79.685 130.01 76.4055 128.617 73.2158C129.064 73.0218 134.651 70.6065 136.533 68.521C138.201 66.6683 139.821 63.8553 139.326 61.2654C139.23 60.6529 139.007 60.0673 138.67 59.5468C138.333 59.0263 137.89 58.5825 137.371 58.244C136.851 57.9056 136.266 57.6802 135.654 57.5824C135.042 57.4846 134.416 57.5166 133.817 57.6764C130.237 58.7434 128.132 65.1357 128.065 68.4725C128.065 68.7053 128.336 71.7511 128.472 72.8375V72.7211C127.027 69.6202 125.309 66.6533 123.341 63.8553C121.595 61.3507 119.703 58.9507 117.676 56.6676C115.823 54.5239 113.99 52.6809 112.351 51.061C111.468 50.188 110.634 49.412 109.848 48.6942H109.926C109.993 48.6942 108.18 44.5329 108.044 44.2807C106.366 41.3707 101.438 36.802 97.7909 37.5974C97.1869 37.7462 96.621 38.0206 96.1303 38.4029C95.6396 38.7851 95.235 39.2666 94.943 39.8159C94.651 40.3651 94.4781 40.9698 94.4356 41.5904C94.3932 42.2109 94.4821 42.8335 94.6966 43.4174C95.5114 45.92 98.2856 47.6175 100.643 48.4226C103 49.2277 108.325 48.8591 109.625 48.7427C110.43 49.4993 111.274 50.3238 112.186 51.255C113.776 52.9137 115.561 54.7858 117.365 56.9586C117.85 57.5406 118.335 58.1808 118.83 58.7919C117.792 57.9286 116.347 56.7743 116.192 56.6773C113.379 54.8828 106.889 53.0786 104.018 55.4648C103.553 55.8748 103.179 56.3781 102.921 56.942C102.663 57.5059 102.526 58.1178 102.519 58.738C102.513 59.3582 102.637 59.9728 102.884 60.5419C103.13 61.111 103.494 61.6219 103.95 62.0414C105.822 63.8844 109.062 64.1075 111.526 63.7486C113.99 63.3897 118.694 60.4991 119.684 59.8686C120.751 61.246 121.818 62.6816 122.836 64.2433C124.713 67.0452 126.336 70.009 127.686 73.0994C127.764 73.2837 127.822 73.4777 127.89 73.6523C127.453 73.1382 124.834 70.4901 124.621 70.3252C122.021 68.2397 115.775 65.7371 112.661 67.7935C112.152 68.1485 111.723 68.6069 111.404 69.1387C111.084 69.6705 110.88 70.2638 110.805 70.8798C110.729 71.4959 110.785 72.1208 110.968 72.7139C111.151 73.3069 111.457 73.8548 111.866 74.3216C113.524 76.3586 116.716 76.9406 119.208 76.8436C122.118 76.7466 127.725 73.9336 127.938 73.7881C129.211 76.9061 130.277 80.1043 131.13 83.362C131.77 85.7676 132.323 88.212 132.856 90.7146C132.274 90.055 129.83 87.6009 129.636 87.436C127.036 85.3505 120.79 82.8479 117.666 84.9043C117.158 85.2603 116.731 85.7191 116.412 86.2509C116.093 86.7827 115.889 87.3756 115.814 87.9912C115.739 88.6068 115.795 89.2313 115.977 89.8241C116.159 90.417 116.463 90.9649 116.871 91.4324C118.539 93.4694 121.721 94.0514 124.223 93.9544C127.017 93.8574 132.449 91.1511 132.953 90.9183C133.196 92.0435 133.438 93.1687 133.671 94.3036C134.437 97.9896 135.184 101.695 136.028 105.323C136.329 106.584 136.659 107.816 136.998 109.048C136.086 108.078 134.389 106.38 134.234 106.254C131.634 104.159 125.378 101.656 122.264 103.713C121.755 104.068 121.326 104.526 121.007 105.058C120.687 105.59 120.483 106.183 120.408 106.799C120.332 107.415 120.388 108.04 120.571 108.633C120.754 109.226 121.06 109.774 121.469 110.241C123.127 112.287 126.319 112.86 128.811 112.772C131.304 112.685 135.922 110.503 137.212 109.862C137.784 111.909 138.385 113.927 139.084 115.886C139.404 116.72 139.666 117.593 140.054 118.379L140.587 119.63L139.86 119.562C139.86 119.562 139.86 120.736 139.928 122.628C137.183 120.688 133.225 118.99 130.654 120.174C130.098 120.448 129.606 120.837 129.21 121.315C128.814 121.792 128.523 122.348 128.356 122.945C128.188 123.542 128.148 124.168 128.239 124.782C128.329 125.396 128.547 125.984 128.879 126.508C129.045 126.787 129.236 127.05 129.452 127.293C129.94 130.189 131.162 132.911 133.002 135.199C133.138 135.354 135 137.081 135.98 137.934C135.01 137.43 134.098 136.964 133.128 136.373C131.731 135.597 130.276 134.733 128.86 133.899L126.6 132.454C125.853 131.998 125.193 131.484 124.476 130.979C123.438 130.232 122.409 129.418 121.381 128.593C122.254 127.216 124.757 123.132 125.125 120.746C125.494 118.36 125.29 115.042 123.447 113.16C123.033 112.699 122.525 112.331 121.959 112.078C121.392 111.826 120.779 111.696 120.159 111.696C119.539 111.696 118.926 111.826 118.359 112.078C117.793 112.331 117.286 112.699 116.871 113.16C114.475 116.07 116.25 122.521 118.025 125.344C118.083 125.431 118.52 125.994 118.995 126.643C118.025 125.819 117.055 124.994 116.085 124.121C113.35 121.638 110.634 119.029 107.898 116.429L106.23 114.848C106.977 113.694 109.722 109.29 110.11 106.797C110.498 104.304 110.275 101.094 108.441 99.2021C108.027 98.7411 107.52 98.3724 106.953 98.12C106.387 97.8677 105.773 97.7373 105.153 97.7373C104.533 97.7373 103.92 97.8677 103.353 98.12C102.787 98.3724 102.28 98.7411 101.865 99.2021C99.469 102.112 101.244 108.553 103.019 111.376C103.077 111.482 103.601 112.142 104.193 112.879C102.689 111.492 101.176 110.115 99.6242 108.805C96.9829 106.539 94.1928 104.452 91.2725 102.558C91.5344 102.151 94.8615 97.0487 95.2883 94.2745C95.6569 91.8107 95.4532 88.5709 93.6102 86.6891C93.1963 86.2283 92.69 85.8598 92.1243 85.6075C91.5586 85.3552 90.9461 85.2248 90.3267 85.2248C89.7073 85.2248 89.0949 85.3552 88.5291 85.6075C87.9634 85.8598 87.4572 86.2283 87.0433 86.6891C84.6377 89.5991 86.4128 96.0496 88.1879 98.8723C88.314 99.0663 90.2346 101.462 90.9427 102.287L90.836 102.219C87.9232 100.425 84.8554 98.896 81.6695 97.6501C78.8181 96.5125 75.9032 95.5408 72.9395 94.7401C70.2041 93.9738 67.6627 93.45 65.4123 92.9941C64.1804 92.7613 63.0649 92.577 62.0076 92.4024H62.0755C62.124 92.4024 58.3216 89.8901 58.0597 89.764C55.0818 88.2799 48.4373 87.1741 45.828 89.8416C45.4081 90.2981 45.0889 90.8377 44.8911 91.4255C44.6933 92.0134 44.6214 92.6362 44.6799 93.2536C44.7384 93.8711 44.9262 94.4693 45.2309 95.0095C45.5357 95.5497 45.9506 96.0197 46.4488 96.3891C48.5149 98.0284 51.7547 97.912 54.2088 97.2912C56.6629 96.6704 60.8533 93.4112 61.8718 92.5964C62.9582 92.7904 64.1222 93.0135 65.4026 93.2851C67.6433 93.7798 70.1653 94.3618 72.8619 95.2251C73.5894 95.4482 74.3557 95.7101 75.1026 95.9429C73.7543 95.8071 71.9113 95.6325 71.727 95.6325C68.3999 95.7004 62.027 97.7665 60.9115 101.346C60.7469 101.944 60.7103 102.569 60.8042 103.182C60.8981 103.795 61.1204 104.381 61.4564 104.902C61.7925 105.423 62.2347 105.867 62.7543 106.205C63.2738 106.544 63.859 106.769 64.4714 106.865C67.0613 107.37 69.884 105.769 71.7367 104.11C73.5894 102.452 75.9174 97.4464 76.4024 96.3503C78.0514 96.9032 79.7295 97.5143 81.4367 98.2903C84.5542 99.5909 87.5503 101.165 90.3898 102.995C90.5547 103.102 90.7099 103.237 90.8748 103.344C90.2249 103.16 86.5777 102.374 86.3158 102.374C82.9984 102.064 76.4024 103.422 74.9377 106.855C74.7079 107.43 74.6018 108.047 74.6263 108.665C74.6508 109.283 74.8054 109.89 75.08 110.444C75.3546 110.999 75.7429 111.49 76.2198 111.884C76.6967 112.278 77.2514 112.568 77.8477 112.734C80.3697 113.519 83.3476 112.239 85.3749 110.794C87.7126 109.125 90.8457 103.625 90.9621 103.422C93.7429 105.322 96.3966 107.403 98.9064 109.649C100.769 111.308 102.592 113.054 104.406 114.829C103.553 114.606 100.167 113.859 99.9152 113.859C96.5978 113.548 90.0018 114.906 88.5371 118.34C88.3088 118.916 88.2039 119.533 88.229 120.151C88.2542 120.77 88.409 121.376 88.6833 121.931C88.9575 122.486 89.3453 122.977 89.8214 123.373C90.2974 123.769 90.8513 124.06 91.4471 124.228C93.9691 125.014 96.947 123.733 98.9743 122.288C101.254 120.659 104.28 115.411 104.542 114.965L107.006 117.39C109.673 120.047 112.341 122.725 115.057 125.285C116.027 126.168 116.997 127.012 117.909 127.856C116.619 127.565 114.261 127.07 114.029 127.051C110.702 126.75 104.115 128.108 102.641 131.542C102.413 132.117 102.308 132.733 102.333 133.351C102.358 133.969 102.513 134.574 102.788 135.129C103.062 135.683 103.45 136.173 103.926 136.568C104.402 136.963 104.955 137.253 105.551 137.42C108.063 138.206 111.051 136.925 113.078 135.48C115.105 134.035 117.753 129.66 118.481 128.428C120.081 129.815 121.701 131.164 123.331 132.415C124.058 132.939 124.767 133.521 125.494 133.986L127.638 135.422C129.132 136.392 130.548 137.216 131.945 138.041C132.653 138.468 133.332 138.846 134.03 139.253C132.769 138.759 130.761 138.012 130.567 137.963C127.337 137.158 120.605 137.498 118.636 140.67C118.324 141.205 118.127 141.801 118.06 142.418C117.994 143.034 118.057 143.658 118.248 144.248C118.438 144.839 118.751 145.382 119.165 145.844C119.58 146.305 120.087 146.674 120.654 146.926C123.021 148.09 126.163 147.275 128.414 146.15C130.858 144.909 134.544 140.33 134.99 139.787C136.707 140.757 138.385 141.727 139.966 142.542C144.196 144.812 147.891 146.616 150.753 147.954C160.065 156.005 173.17 156.898 173.17 156.898C173.17 156.898 173.858 141.203 164.624 130.873C161.42 127.42 157.5 124.709 153.139 122.928ZM136.523 138.225C136.814 137.585 139.045 132.599 139.2 129.786C139.714 129.689 140.238 129.583 140.742 129.466C141.698 134.429 143.68 139.137 146.562 143.289C144.865 142.484 143.032 141.591 141.092 140.602C139.598 139.865 138.075 139.069 136.523 138.225Z" fill="white"/>
<path d="M221.806 119.921C221.806 119.921 206.101 120.406 196.489 130.388C186.876 140.369 187.002 156.083 187.002 156.083C187.002 156.083 202.706 155.598 212.309 145.617C221.912 135.635 221.806 119.921 221.806 119.921Z" fill="white"/>
</g>
<path d="M180.794 130.038L196.217 116.177L195.557 115.44L180.784 128.719L180.707 110.541L180.794 110.599L193.831 91.5293L193.016 90.9667L180.707 108.97L180.513 65.252H179.523L179.649 94.934L169.833 86.4368L169.193 87.1837L179.659 96.2435L179.746 117.467L164.867 104.294L164.217 105.041L179.756 118.786L179.834 138.109L168.65 129.33L168.048 130.116L179.843 139.37L179.902 151.805H180.891L180.794 130.038Z" fill="white"/>
<path d="M166.584 135.393L165.604 135.276L164.362 146.257L157.737 138.856H157.757L156.069 125.567L155.089 125.693L156.593 137.575L140.132 119.174L139.395 119.834L150.569 132.318L143.498 132.405L143.507 133.395L151.442 133.298L159.27 142.057L148.212 142.066V143.056L160.153 143.046L167.272 151L159.474 151.475L159.541 152.455L168.116 151.941L172.86 157.247L173.597 156.587L165.245 147.246L166.584 135.393Z" fill="white"/>
<path d="M203.85 139.302L216.984 136.644L216.78 135.674L205.043 138.051L222.154 120.271L221.446 119.582L209.835 131.649L209.214 124.607L208.235 124.694L208.923 132.599L200.775 141.058L199.941 130.029L198.952 130.107L199.854 142.018L192.453 149.71L191.405 141.97L190.416 142.096L191.58 150.622L186.643 155.744L187.351 156.423L196.042 147.402L207.963 147.858L208.002 146.868L196.963 146.451L203.85 139.292V139.302Z" fill="white"/>
<path d="M228.353 419.758L112.826 208.851L33.0049 235.865L58.8942 286.208L57.2549 283.395L52.4049 285.005C51.922 285.167 51.4798 285.431 51.1086 285.78C50.7374 286.128 50.4459 286.553 50.2543 287.025C50.0626 287.496 49.9753 288.004 49.9983 288.513C50.0212 289.021 50.1539 289.519 50.3873 289.972L63.1525 314.794C63.9662 316.381 65.2639 317.668 66.8579 318.469C68.4519 319.269 70.2592 319.542 72.0183 319.246L75.5588 318.655L137.736 439.565L228.353 419.758Z" fill="#2E353A"/>
<path d="M302.985 117.787C301.743 118.465 300.283 118.624 298.925 118.227C297.567 117.831 296.421 116.912 295.739 115.672L292.781 110.27L112.826 208.851L228.353 419.758L408.317 321.186L345.422 206.367C344.744 205.127 344.586 203.669 344.983 202.312C345.379 200.955 346.298 199.811 347.537 199.131C348.152 198.795 348.694 198.34 349.133 197.794C349.573 197.247 349.9 196.619 350.096 195.947C350.292 195.274 350.354 194.569 350.278 193.872C350.202 193.175 349.989 192.5 349.652 191.885L310.221 119.902C309.541 118.662 308.397 117.744 307.041 117.347C305.684 116.951 304.225 117.109 302.985 117.787Z" fill="#A343BA" stroke="#2E353A" stroke-linecap="round" stroke-linejoin="round"/>
<path d="M311.937 125.569L165.784 177.669L235.567 373.425L381.719 321.325L311.937 125.569Z" fill="white" stroke="#2E353A" stroke-linecap="round" stroke-linejoin="round"/>
<path d="M311.945 125.576L165.792 177.676L191.5 249.793L337.653 197.693L311.945 125.576Z" fill="white" stroke="#2E353A" stroke-linecap="round" stroke-linejoin="round"/>
<path d="M300.633 199.666C311.546 192.737 314.776 178.274 307.848 167.361C300.919 156.447 286.456 153.217 275.542 160.145C264.629 167.074 261.399 181.537 268.327 192.451C275.256 203.364 289.719 206.594 300.633 199.666Z" fill="#2E353A" stroke="#2E353A" stroke-linecap="round" stroke-linejoin="round"/>
<path d="M295.943 201.983C299.187 200.83 302.137 198.974 304.58 196.547C307.024 194.12 308.9 191.184 310.076 187.947C306.011 178.848 296.079 174.105 287.135 177.277C278.192 180.449 273.507 190.43 276.116 200.043C279.074 201.807 282.385 202.896 285.812 203.232C289.24 203.567 292.699 203.141 295.943 201.983Z" fill="white" stroke="#2E353A" stroke-linecap="round" stroke-linejoin="round"/>
<path d="M294.375 184.449C299.285 180.111 299.749 172.614 295.411 167.704C291.073 162.794 283.576 162.331 278.666 166.668C273.756 171.006 273.292 178.503 277.63 183.413C281.968 188.323 289.465 188.787 294.375 184.449Z" fill="white" stroke="#2E353A" stroke-linecap="round" stroke-linejoin="round"/>
<path d="M238.942 180.53L187.794 198.763L189.888 204.638L241.036 186.405L238.942 180.53Z" fill="white" stroke="#2E353A" stroke-linecap="round" stroke-linejoin="round"/>
<path d="M243.98 194.646L192.832 212.879L194.926 218.754L246.074 200.521L243.98 194.646Z" fill="white" stroke="#2E353A" stroke-linecap="round" stroke-linejoin="round"/>
<path d="M248.162 206.394L197.014 224.627L198.062 227.569L249.21 209.336L248.162 206.394Z" fill="#2E353A"/>
<path d="M250.678 213.453L199.53 231.687L200.579 234.629L251.727 216.396L250.678 213.453Z" fill="#2E353A"/>
<path d="M263.461 249.316L212.313 267.549L213.362 270.491L264.51 252.258L263.461 249.316Z" fill="#2E353A"/>
<path d="M265.762 255.789L214.614 274.022L215.663 276.964L266.811 258.731L265.762 255.789Z" fill="#2E353A"/>
<path d="M268.072 262.253L216.924 280.486L217.973 283.428L269.121 265.195L268.072 262.253Z" fill="#2E353A"/>
<path d="M332.834 224.582L281.687 242.815L282.735 245.757L333.883 227.524L332.834 224.582Z" fill="#2E353A"/>
<path d="M335.144 231.056L283.996 249.289L285.045 252.231L336.193 233.998L335.144 231.056Z" fill="#2E353A"/>
<path d="M337.445 237.523L286.297 255.756L287.346 258.698L338.494 240.465L337.445 237.523Z" fill="#2E353A"/>
<path d="M209.031 262.113L332.503 218.114" stroke="#2E353A" stroke-linecap="round" stroke-linejoin="round"/>
<path d="M275.408 282.826L224.26 301.06L225.309 304.002L276.456 285.769L275.408 282.826Z" fill="#2E353A"/>
<path d="M277.708 289.303L226.561 307.536L227.609 310.478L278.757 292.245L277.708 289.303Z" fill="#2E353A"/>
<path d="M280.019 295.767L228.871 314L229.92 316.942L281.068 298.709L280.019 295.767Z" fill="#2E353A"/>
<path d="M344.781 258.097L293.633 276.33L294.682 279.272L345.829 261.039L344.781 258.097Z" fill="#2E353A"/>
<path d="M347.091 264.57L295.943 282.803L296.992 285.745L348.14 267.512L347.091 264.57Z" fill="#2E353A"/>
<path d="M349.392 271.036L298.244 289.27L299.293 292.212L350.441 273.979L349.392 271.036Z" fill="#2E353A"/>
<path d="M220.972 295.627L344.443 251.627" stroke="#2E353A" stroke-linecap="round" stroke-linejoin="round"/>
<path d="M354.001 283.96L232.883 327.136L243.361 356.529L364.479 313.353L354.001 283.96Z" fill="#2E353A" stroke="#2E353A" stroke-linecap="round" stroke-linejoin="round"/>
<path d="M292.807 137.685L150.203 198.834L232.106 389.837L374.71 328.687L292.807 137.685Z" fill="white" stroke="#2E353A" stroke-linecap="round" stroke-linejoin="round"/>
<path d="M292.813 137.688L150.21 198.837L180.383 269.203L322.987 208.053L292.813 137.688Z" fill="white" stroke="#2E353A" stroke-linecap="round" stroke-linejoin="round"/>
<path d="M292.19 205.924C299.09 194.993 295.821 180.538 284.89 173.638C273.959 166.738 259.503 170.006 252.604 180.937C245.704 191.869 248.972 206.324 259.903 213.224C270.835 220.124 285.29 216.855 292.19 205.924Z" fill="#2E353A" stroke="#2E353A" stroke-linecap="round" stroke-linejoin="round"/>
<path d="M281.626 214.952C284.792 213.597 287.619 211.558 289.904 208.983C292.19 206.407 293.878 203.357 294.847 200.053C290.23 191.236 280.016 187.113 271.295 190.857C262.575 194.602 258.521 204.835 261.722 214.263C264.784 215.837 268.156 216.714 271.597 216.834C275.038 216.953 278.462 216.31 281.626 214.952Z" fill="white" stroke="#2E353A" stroke-linecap="round" stroke-linejoin="round"/>
<path d="M278.654 197.82C283.445 193.351 283.706 185.844 279.236 181.053C274.767 176.263 267.261 176.002 262.47 180.471C257.679 184.94 257.418 192.447 261.887 197.238C266.356 202.029 273.863 202.289 278.654 197.82Z" fill="white" stroke="#2E353A" stroke-linecap="round" stroke-linejoin="round"/>
<path d="M223.392 197.116L173.486 218.516L175.944 224.248L225.85 202.848L223.392 197.116Z" fill="white" stroke="#2E353A" stroke-linecap="round" stroke-linejoin="round"/>
<path d="M229.298 210.882L179.393 232.282L181.851 238.014L231.756 216.614L229.298 210.882Z" fill="white" stroke="#2E353A" stroke-linecap="round" stroke-linejoin="round"/>
<path d="M234.22 222.349L184.314 243.749L185.545 246.62L235.451 225.22L234.22 222.349Z" fill="#2E353A"/>
<path d="M237.171 229.233L187.266 250.633L188.497 253.504L238.402 232.104L237.171 229.233Z" fill="#2E353A"/>
<path d="M252.18 264.225L202.274 285.625L203.505 288.496L253.411 267.096L252.18 264.225Z" fill="#2E353A"/>
<path d="M254.886 270.534L204.98 291.934L206.211 294.804L256.117 273.404L254.886 270.534Z" fill="#2E353A"/>
<path d="M257.584 276.856L207.678 298.256L208.909 301.126L258.815 279.726L257.584 276.856Z" fill="#2E353A"/>
<path d="M319.862 235.213L269.956 256.613L271.187 259.483L321.093 238.083L319.862 235.213Z" fill="#2E353A"/>
<path d="M322.564 241.512L272.658 262.912L273.889 265.783L323.795 244.383L322.564 241.512Z" fill="#2E353A"/>
<path d="M325.28 247.83L275.374 269.23L276.605 272.101L326.511 250.701L325.28 247.83Z" fill="#2E353A"/>
<path d="M198.651 280.407L319.125 228.755" stroke="#2E353A" stroke-linecap="round" stroke-linejoin="round"/>
<path d="M266.197 296.93L216.291 318.33L217.522 321.201L267.428 299.801L266.197 296.93Z" fill="#2E353A"/>
<path d="M268.909 303.229L219.003 324.629L220.234 327.5L270.14 306.1L268.909 303.229Z" fill="#2E353A"/>
<path d="M271.615 309.548L221.709 330.948L222.94 333.818L272.846 312.418L271.615 309.548Z" fill="#2E353A"/>
<path d="M333.893 267.905L283.987 289.305L285.218 292.175L335.124 270.775L333.893 267.905Z" fill="#2E353A"/>
<path d="M336.595 274.204L286.689 295.604L287.92 298.475L337.826 277.075L336.595 274.204Z" fill="#2E353A"/>
<path d="M339.293 280.526L289.387 301.926L290.618 304.797L340.524 283.397L339.293 280.526Z" fill="#2E353A"/>
<path d="M212.668 313.106L333.142 261.454" stroke="#2E353A" stroke-linecap="round" stroke-linejoin="round"/>
<path d="M344.71 293.137L226.533 343.812L238.831 372.491L357.008 321.816L344.71 293.137Z" fill="#2E353A" stroke="#2E353A" stroke-linecap="round" stroke-linejoin="round"/>
<path d="M260.197 136.421L130.053 220.905L243.211 395.22L373.354 310.736L260.197 136.421Z" fill="white" stroke="#2E353A" stroke-linecap="round" stroke-linejoin="round"/>
<path d="M260.202 136.429L130.059 220.914L171.746 285.131L301.89 200.647L260.202 136.429Z" fill="white" stroke="#2E353A" stroke-linecap="round" stroke-linejoin="round"/>
<path d="M253.295 217.904C266.055 215.831 274.717 203.807 272.644 191.047C270.571 178.288 258.546 169.625 245.787 171.698C233.027 173.772 224.364 185.796 226.438 198.556C228.511 211.315 240.536 219.978 253.295 217.904Z" fill="#2E353A" stroke="#2E353A" stroke-linecap="round" stroke-linejoin="round"/>
<path d="M262.304 214.37C265.194 212.497 267.634 210.009 269.45 207.082C271.266 204.156 272.413 200.865 272.809 197.444C266.756 189.528 255.989 187.22 248.035 192.38C240.081 197.541 237.811 208.327 242.574 217.076C245.858 218.109 249.331 218.401 252.742 217.933C256.153 217.465 259.418 216.249 262.304 214.37Z" fill="#A343BA" stroke="#2E353A" stroke-linecap="round" stroke-linejoin="round"/>
<path d="M254.706 199.898C259.693 195.649 260.292 188.162 256.043 183.175C251.794 178.187 244.306 177.589 239.319 181.838C234.332 186.087 233.734 193.574 237.982 198.561C242.231 203.549 249.719 204.147 254.706 199.898Z" fill="white" stroke="#2E353A" stroke-linecap="round" stroke-linejoin="round"/>
<path d="M201.88 206.778L156.335 236.344L159.731 241.576L205.277 212.009L201.88 206.778Z" fill="white" stroke="#2E353A" stroke-linecap="round" stroke-linejoin="round"/>
<path d="M210.034 219.342L164.488 248.909L167.884 254.14L213.43 224.574L210.034 219.342Z" fill="white" stroke="#2E353A" stroke-linecap="round" stroke-linejoin="round"/>
<path d="M216.016 231.101L170.403 260.423L172.09 263.047L217.702 233.725L216.016 231.101Z" fill="#2E353A"/>
<path d="M220.915 236.088L175.369 265.654L177.07 268.274L222.615 238.708L220.915 236.088Z" fill="#2E353A"/>
<path d="M241.651 268.021L196.105 297.587L197.806 300.207L243.352 270.641L241.651 268.021Z" fill="#2E353A"/>
<path d="M245.389 273.789L199.844 303.355L201.544 305.975L247.09 276.409L245.389 273.789Z" fill="#2E353A"/>
<path d="M249.127 279.556L203.581 309.123L205.282 311.742L250.827 282.176L249.127 279.556Z" fill="#2E353A"/>
<path d="M303.428 227.916L257.883 257.482L259.583 260.102L305.129 230.535L303.428 227.916Z" fill="#2E353A"/>
<path d="M307.174 233.678L261.629 263.244L263.33 265.864L308.875 236.298L307.174 233.678Z" fill="#2E353A"/>
<path d="M310.913 239.445L265.367 269.012L267.068 271.632L312.613 242.065L310.913 239.445Z" fill="#2E353A"/>
<path d="M191.668 293.018L301.608 221.635" stroke="#2E353A" stroke-linecap="round" stroke-linejoin="round"/>
<path d="M261.026 297.873L215.48 327.439L217.181 330.059L262.727 300.493L261.026 297.873Z" fill="#2E353A"/>
<path d="M264.758 303.633L219.213 333.199L220.914 335.819L266.459 306.253L264.758 303.633Z" fill="#2E353A"/>
<path d="M268.504 309.385L222.959 338.952L224.66 341.571L270.205 312.005L268.504 309.385Z" fill="#2E353A"/>
<path d="M322.803 257.768L277.258 287.334L278.958 289.954L324.504 260.388L322.803 257.768Z" fill="#2E353A"/>
<path d="M326.544 263.522L280.999 293.088L282.7 295.708L328.245 266.141L326.544 263.522Z" fill="#2E353A"/>
<path d="M330.272 269.289L284.727 298.855L286.427 301.475L331.973 271.909L330.272 269.289Z" fill="#2E353A"/>
<path d="M211.039 322.855L320.979 251.482" stroke="#2E353A" stroke-linecap="round" stroke-linejoin="round"/>
<path d="M337.766 280.804L229.915 350.817L246.906 376.99L354.757 306.978L337.766 280.804Z" fill="#2E353A" stroke="#2E353A" stroke-linecap="round" stroke-linejoin="round"/>
<path d="M112.826 208.851L43.8398 155.442L84.8902 232.451C85.8602 234.313 83.2897 234.662 80.6707 233.013C78.0226 231.355 75.4133 231.723 76.4512 233.605L97.7427 272.308C98.0811 272.859 98.5263 273.338 99.0522 273.714L109.451 281.552C109.992 281.934 110.445 282.426 110.78 282.997L153.857 364.817L228.363 419.758L112.826 208.851Z" fill="#A343BA" stroke="#2E353A" stroke-linecap="round" stroke-linejoin="round"/>
<path opacity="0.25" d="M112.826 208.851L43.8398 155.442L84.8902 232.451C85.8602 234.313 83.2897 234.662 80.6707 233.013C78.0226 231.355 75.4133 231.723 76.4512 233.605L97.7427 272.308C98.0811 272.859 98.5263 273.338 99.0522 273.714L109.451 281.552C109.992 281.934 110.445 282.426 110.78 282.997L153.857 364.817L228.363 419.758L112.826 208.851Z" fill="#2E353A" stroke="#2E353A" stroke-linecap="round" stroke-linejoin="round"/>
<path d="M406.668 326.425C406.653 326.39 406.625 326.362 406.59 326.347C405.455 325.852 395.92 325.94 395.668 326.502C395.668 326.57 395.716 326.657 395.862 326.754C396.066 326.882 396.28 326.993 396.502 327.084C396.774 327.201 397.104 327.327 397.472 327.453C397.841 327.579 398.19 327.705 398.568 327.821L400.188 328.326L401.042 328.578L401.604 328.733L391.73 338.288C389.673 340.166 387.513 341.927 385.26 343.565L384.814 343.118C384.168 342.495 383.485 341.911 382.767 341.372V341.12C381.931 341.652 381.059 342.125 380.158 342.536C376.782 344.234 367.315 348.482 363.939 355.292C362.247 358.747 360.369 362.108 358.313 365.36V365.807H358.042C354.773 365.525 348.545 367.698 343.967 369.958C340.057 372.12 336.292 374.534 332.696 377.185L329.145 378.436C327.855 378.62 325.488 378.921 325.159 379.319C324.829 379.716 322.53 379.319 321.511 379.571C320.493 379.823 320.784 380.541 320.784 380.541L322.724 380.725L309.93 385.178L320.221 393.345L334.18 388.165L334.927 388.349C336.415 388.807 338.023 388.664 339.408 387.952C339.9 387.767 340.383 387.557 340.853 387.321C343.433 386.982 351.281 385.255 354.006 384.654C356.053 387.428 361.893 392.094 362.892 394.111C362.939 394.218 362.978 394.328 363.008 394.441C363.008 394.441 363.008 394.49 363.008 394.519C363.028 394.601 363.028 394.688 363.008 394.771C362.546 395.9 361.943 396.965 361.214 397.943C359.884 397.394 358.512 396.956 357.111 396.633C351.805 395.411 348.904 400.921 347.983 401.192C347.061 401.464 345.936 402.279 347.013 403.055C348.09 403.831 346.46 404.548 345.8 405.596C345.39 406.424 345.112 407.311 344.976 408.225C341.474 408.525 338.477 409.971 337.701 412.105C336.731 414.83 345.567 416.829 345.567 416.829C345.567 416.829 357.799 421.611 367.131 418.613C376.462 415.616 376.103 410.621 376.831 407.943C377.558 405.266 385.173 398.68 393.718 394.092C402.264 389.504 405.979 385.362 397.851 379.144C392.516 375.06 387.821 373.101 383.95 372.946C384.047 372.713 384.154 372.48 384.261 372.257L384.455 371.83C384.571 371.588 384.707 371.355 384.833 371.113L385.027 370.763C385.231 370.414 385.444 370.075 385.677 369.735C386.082 369.159 386.436 368.549 386.734 367.912C387.677 365.94 387.927 363.708 387.442 361.577C387.277 360.963 387.185 360.332 387.171 359.696C387.365 358.425 389.479 353.429 390.023 351.208C390.043 351.054 390.043 350.897 390.023 350.743C389.945 350.116 389.747 349.51 389.441 348.958C391.623 347.658 396.017 345.291 398.035 343.05C400.052 340.81 404.466 332.827 406.115 328.733C406.183 328.568 406.241 328.403 406.299 328.248C406.357 328.103 406.406 327.948 406.454 327.812C406.493 327.676 406.532 327.55 406.571 327.433V327.385C406.571 327.288 406.629 327.181 406.648 327.094C406.644 327.078 406.644 327.061 406.648 327.045C406.648 326.958 406.648 326.881 406.648 326.813V326.745C406.653 326.693 406.653 326.641 406.648 326.59V326.512C406.648 326.512 406.677 326.454 406.668 326.425ZM355.132 381.026C352.134 381.86 345.228 384.043 341.552 385.265L334.762 379.047C336.411 378.194 340.068 376.603 344.219 374.818C348.069 373.376 352.062 372.352 356.131 371.762C356.468 372.387 356.688 373.067 356.781 373.77C357.168 374.972 357.655 376.14 358.236 377.262C357.456 378.707 356.401 379.985 355.132 381.026Z" fill="#2E353A"/>
<path d="M395.047 279.729C397.079 285.913 398.779 292.201 400.139 298.566C401.507 306.064 404.369 321.672 404.369 321.672C404.369 321.672 397.171 322.079 397.045 323.253C396.919 324.427 406.541 329.073 407.977 328.617C409.413 328.161 410.237 298.877 409.374 292.223C408.51 285.568 403.913 276.703 403.554 274.704C403.195 272.706 402.409 268.816 402.409 268.816L395.047 279.729Z" fill="white" stroke="#2E353A" stroke-linecap="round" stroke-linejoin="round"/>
<path d="M407.977 328.617C408.336 328.51 408.656 326.677 408.947 323.767C406.124 325.843 404.097 323.767 404.097 323.767L404.359 321.691C404.359 321.691 397.162 322.098 397.035 323.272C396.909 324.446 406.541 329.063 407.977 328.617Z" fill="#A343BA" stroke="#2E353A" stroke-linecap="round" stroke-linejoin="round"/>
<path d="M390.77 191.992C390.77 191.992 379.343 180.217 377.645 179.382C375.948 178.548 375.356 180.352 375.841 181.371C376.326 182.389 387.947 197.793 389.916 199.801C391.885 201.809 390.77 191.992 390.77 191.992Z" fill="white" stroke="#2E353A" stroke-linecap="round" stroke-linejoin="round"/>
<path d="M361.126 158.634L345.81 169.672L363.929 195.814L377.936 184.028L361.126 158.634Z" fill="#2E353A" stroke="#2E353A" stroke-linecap="round" stroke-linejoin="round"/>
<path d="M361.233 161.476L348.273 170.817L363.609 192.943L375.463 182.971L361.233 161.476Z" fill="#A343BA" stroke="#2E353A" stroke-linecap="round" stroke-linejoin="round"/>
<path d="M379.013 181.468C378.516 180.243 377.905 179.068 377.189 177.957C375.928 176.017 375.123 174.979 372.902 175.105C371.251 175.153 369.6 175.033 367.974 174.746C366.703 174.61 366.684 176.443 367.353 177.074C368.023 177.704 371.718 177.549 371.718 177.549C371.34 177.055 371.621 177.86 374.066 181.226C374.754 182.196 377.17 182.36 377.713 182.419" fill="white"/>
<path d="M379.013 181.468C378.516 180.243 377.905 179.068 377.189 177.957C375.928 176.017 375.123 174.979 372.902 175.105C371.251 175.153 369.6 175.033 367.974 174.746C366.703 174.61 366.684 176.443 367.353 177.074C368.023 177.704 371.718 177.549 371.718 177.549C371.34 177.055 371.621 177.86 374.066 181.226C374.754 182.196 377.17 182.36 377.713 182.419" stroke="#2E353A" stroke-linecap="round" stroke-linejoin="round"/>
<path d="M395.406 139.438C394.825 141.833 394.446 144.273 394.271 146.732C394.271 149.06 395.532 151.233 393.961 152.222C392.389 153.212 393.049 155.326 393.815 156.277C394.581 157.227 394.184 169.265 400.285 169.352C406.386 169.44 412.255 166.297 413.496 162.941C414.738 159.585 417.813 150.03 413.943 145.529C410.072 141.028 398.976 133.424 395.406 139.438Z" fill="white" stroke="#2E353A" stroke-linecap="round" stroke-linejoin="round"/>
<path d="M395.639 150.583L396.6 152.348L395.436 152.387" stroke="#2E353A" stroke-linecap="round" stroke-linejoin="round"/>
<path d="M395.445 147.75C395.445 147.75 397.269 147.75 397.385 150.777" stroke="#2E353A" stroke-linecap="round" stroke-linejoin="round"/>
<path d="M405.135 167.548C405.367 170.259 405.367 172.985 405.135 175.696C405.062 176.139 404.886 176.557 404.621 176.919C407.651 174.838 410.905 173.104 414.321 171.749L415.291 171.38C414.795 167.263 414.549 163.12 414.554 158.974L405.135 167.548Z" fill="white" stroke="#2E353A" stroke-linecap="round" stroke-linejoin="round"/>
<path d="M379.11 283.657C379.11 283.657 378.586 296.801 379.692 301.292C380.798 305.783 384.882 342.934 384.707 346.29C384.532 349.646 384.397 351.024 384.397 351.024C384.397 351.024 374.299 352.498 373.271 352.789C372.242 353.08 371.903 354.428 377.49 356.029C383.077 357.629 387.375 360.083 388.568 358.231C389.761 356.378 391.381 349.501 391.856 344.486C392.971 332.846 394.882 319.77 393.738 313.892C392.593 308.014 389.615 300.7 390.023 298.76C390.43 296.82 396.735 275.48 396.735 275.48L379.11 283.657Z" fill="white" stroke="#2E353A" stroke-linecap="round" stroke-linejoin="round"/>
<path d="M388.568 358.231C389.184 356.952 389.605 355.589 389.819 354.186C386.86 355.748 383.223 353.536 383.223 353.536L384.397 351.024C384.397 351.024 374.299 352.498 373.271 352.789C372.242 353.08 371.903 354.429 377.49 356.029C383.077 357.63 387.375 360.084 388.568 358.231Z" fill="#A343BA" stroke="#2E353A" stroke-linecap="round" stroke-linejoin="round"/>
<path d="M405.135 167.548C405.366 170.259 405.366 172.985 405.135 175.696C404.728 179.431 387.821 190.382 388.247 194.505C388.674 198.627 390.663 204.37 389.547 209.191C388.432 214.011 382.243 230.792 381.011 236.768C379.779 242.743 375.094 288.178 377.209 290.176C379.323 292.174 387.879 291.33 392.186 288.895C396.492 286.461 405.387 277.255 406.173 272.687C406.959 268.118 407.841 257.448 408.414 254.887C408.986 252.326 413.438 246.157 412.944 234.731C412.449 223.304 416.571 209.511 417.541 200.616C418.511 191.721 417.541 179.664 415.999 174.843C414.457 170.022 414.534 158.974 414.534 158.974L405.135 167.548Z" fill="#A343BA" stroke="#2E353A" stroke-linecap="round" stroke-linejoin="round"/>
<path d="M406.154 272.687C406.95 268.118 407.823 257.448 408.395 254.887C408.967 252.326 413.419 246.157 412.925 234.731C412.643 228.464 413.769 221.48 415.001 214.972C411.77 218.037 403.361 225.176 394.388 226.01C387.899 226.621 385.784 224.73 385.173 222.964C383.379 228.377 381.594 233.858 380.992 236.768C379.751 242.743 375.075 288.178 377.19 290.176C379.305 292.174 387.86 291.33 392.167 288.895C396.474 286.461 405.368 277.255 406.154 272.687Z" fill="#2E353A" stroke="#2E353A" stroke-linecap="round" stroke-linejoin="round"/>
<path d="M404.321 259.437L391.226 282.251" stroke="white" stroke-width="0.5" stroke-linecap="round" stroke-linejoin="round"/>
<path d="M398.335 274.025L392.351 285.995" stroke="white" stroke-width="0.5" stroke-linecap="round" stroke-linejoin="round"/>
<path d="M447.33 183.728C444.799 172.757 437.63 168.965 431.306 165.172C428.396 163.436 427.426 160.467 427.29 157.751L426.97 160.661C426.811 159.285 426.811 157.895 426.97 156.519C427.077 155.879 427.212 155.191 427.368 154.444C427.23 155.528 427.198 156.622 427.271 157.713L427.921 151.64V151.708C428.891 146.267 429.327 139.021 423.623 131.426C416.009 121.279 400.78 124.859 400.78 124.859C400.78 124.859 390.624 124.616 389.994 130.368C389.363 136.12 393.146 141.475 398.258 142.619C398.258 142.619 399.296 144.831 400.479 148.139C399.943 148.643 399.528 149.264 399.267 149.953C399.267 149.953 400.955 150.796 401.798 156.277C402.642 161.757 394.203 171.884 395.008 178.587C395.814 185.29 403.021 185.377 402.594 189.131C402.167 192.885 397.113 192.041 397.54 196.716C397.841 200.043 403.574 204.243 407.24 207.289C407.014 210.518 406.991 213.758 407.172 216.989C404.911 220.658 403.756 224.902 403.845 229.211C404.097 235.458 409.869 237.679 415.349 236.215C416.856 235.803 418.324 235.258 419.734 234.585C424.894 236.661 437.446 235.06 443.479 225.001C449.804 214.458 443.896 211.082 443.479 203.496C443.062 195.911 449.862 194.689 447.33 183.728Z" fill="#2E353A" stroke="#2E353A" stroke-linecap="round" stroke-linejoin="round"/>
<path d="M397.511 134.064C400.575 138.145 404.303 141.683 408.54 144.53C416.552 149.594 411.071 164.774 404.747 171.516C398.423 178.257 399.684 184.591 406.852 187.957C414.02 191.323 426.669 195.125 419.462 207.357C412.255 219.589 411.45 229.279 421.994 232.238" stroke="white" stroke-width="0.5" stroke-linecap="round" stroke-linejoin="round"/>
<path d="M395.047 130.601C395.047 130.601 395.629 131.571 396.696 132.978" stroke="white" stroke-width="0.5" stroke-linecap="round" stroke-linejoin="round"/>
<path d="M431.005 230.792C431.7 230.958 432.421 230.983 433.126 230.864C433.831 230.746 434.505 230.487 435.108 230.104" stroke="white" stroke-width="0.5" stroke-linecap="round" stroke-linejoin="round"/>
<path d="M423.265 184.514C429.802 186.861 436.845 188.84 437.63 195.533C438.901 206.494 424.138 211.557 424.138 220.404C424.138 224.565 425.719 227.514 427.785 229.211" stroke="white" stroke-width="0.5" stroke-linecap="round" stroke-linejoin="round"/>
<path d="M408.54 144.53C408.54 144.53 418.657 148.323 421.15 154.647C423.643 160.972 408.084 170.255 413.138 178.267C414.7 180.731 417.493 182.273 420.665 183.553" stroke="white" stroke-width="0.5" stroke-linecap="round" stroke-linejoin="round"/>
<path d="M422.644 135.625C422.644 135.625 431.374 144.54 427.387 154.482C423.4 164.425 421.567 168.916 424.477 171.535C427.387 174.154 442.82 175.279 446.583 187.21" stroke="white" stroke-width="0.5" stroke-linecap="round" stroke-linejoin="round"/>
<path d="M387.181 219.404C387.181 219.404 378.354 212.886 374.183 205.669C370.012 198.452 366.5 192.322 366.588 191.536C366.675 190.751 367.102 186.822 365.879 185.299C364.657 183.776 360.486 181.924 359.943 181.468C359.4 181.012 358.265 182.282 359.526 183.408C360.787 184.533 362.038 185.871 362.038 185.871L353.929 183.796C353.728 184.135 353.635 184.527 353.663 184.921C353.691 185.314 353.838 185.69 354.084 185.998C354.977 186.89 357.528 187.162 357.615 188.17C357.702 189.179 360.283 191.08 361.379 191.953C361.845 192.416 362.423 192.75 363.057 192.923C363.057 192.923 367.703 208.531 370.972 215.049C374.241 221.567 379.217 228.629 382.68 229.599C386.143 230.569 390.391 224.477 390.391 224.477L387.181 219.404Z" fill="white" stroke="#2E353A" stroke-linecap="round" stroke-linejoin="round"/>
<path d="M402.516 188.112C402.516 188.112 397.792 191.371 396.318 195.775C394.843 200.179 387.316 210.878 386.23 213.546C385.736 214.876 385.064 216.132 384.231 217.28C384.231 217.28 385.201 223.1 389.217 226.165C393.233 229.231 394.475 228.93 394.475 228.93C394.475 228.93 409.025 205.281 411.372 199.781C413.719 194.281 408.772 185.416 402.516 188.112Z" fill="#A343BA" stroke="#2E353A" stroke-linecap="round" stroke-linejoin="round"/>
</svg>
