<svg width="486" height="485" viewBox="0 0 486 485" fill="none" xmlns="http://www.w3.org/2000/svg">
<path d="M431.49 201.702C431.49 201.702 441.549 273.016 390.546 329.742C339.544 386.467 258.035 403.054 192.366 418.167C126.697 433.279 69.1078 403.82 51.512 348.23C33.9162 292.639 81.7954 267.797 98.072 198.665C114.349 129.534 108.17 108.64 159.58 59.4899C210.99 10.34 306.389 20.234 366.073 80.8299C425.757 141.426 431.49 201.702 431.49 201.702Z" fill="#4090FF"/>
<path opacity="0.8" d="M431.49 201.702C431.49 201.702 441.549 273.016 390.546 329.742C339.544 386.467 258.035 403.054 192.366 418.167C126.697 433.279 69.1078 403.82 51.512 348.23C33.9162 292.639 81.7954 267.797 98.072 198.665C114.349 129.534 108.17 108.64 159.58 59.4899C210.99 10.34 306.389 20.234 366.073 80.8299C425.757 141.426 431.49 201.702 431.49 201.702Z" fill="white"/>
<path d="M45.0322 340.897H435.991" stroke="#263238" stroke-miterlimit="10"/>
<path d="M45.0322 266.886H435.991" stroke="#263238" stroke-miterlimit="10"/>
<path d="M45.0322 192.865H435.991" stroke="#263238" stroke-miterlimit="10"/>
<path d="M45.0322 118.845H435.991" stroke="#263238" stroke-miterlimit="10"/>
<path d="M133.923 76.8145V341.081" stroke="#263238" stroke-miterlimit="10"/>
<path d="M368.915 76.8145V341.081" stroke="#263238" stroke-miterlimit="10"/>
<path d="M142.643 174.775L139.743 177.84" stroke="#263238" stroke-miterlimit="10"/>
<path d="M192.201 122.511L146.155 171.079" stroke="#263238" stroke-miterlimit="10"/>
<path d="M195.072 130.417L169.202 157.004" stroke="#263238" stroke-miterlimit="10"/>
<path d="M378.965 174.775L376.064 177.84" stroke="#263238" stroke-miterlimit="10"/>
<path d="M428.522 122.511L382.477 171.079" stroke="#263238" stroke-miterlimit="10"/>
<path d="M431.393 130.417L405.523 157.004" stroke="#263238" stroke-miterlimit="10"/>
<path d="M39.164 324.251L36.2637 327.317" stroke="#263238" stroke-miterlimit="10"/>
<path d="M88.7217 271.979L42.6758 320.556" stroke="#263238" stroke-miterlimit="10"/>
<path d="M91.5926 279.884L65.7227 306.471" stroke="#263238" stroke-miterlimit="10"/>
<path d="M77.2557 111.541L74.3457 114.606" stroke="#263238" stroke-miterlimit="10"/>
<path d="M126.804 59.2671L80.7578 107.835" stroke="#263238" stroke-miterlimit="10"/>
<path d="M129.684 67.1724L103.814 93.7601" stroke="#263238" stroke-miterlimit="10"/>
<path d="M292.596 111.541L289.686 114.606" stroke="#263238" stroke-miterlimit="10"/>
<path d="M342.144 59.2671L296.098 107.835" stroke="#263238" stroke-miterlimit="10"/>
<path d="M345.024 67.1724L319.154 93.7601" stroke="#263238" stroke-miterlimit="10"/>
<path d="M226.006 251.667L223.105 254.732" stroke="#263238" stroke-miterlimit="10"/>
<path d="M275.563 199.403L229.517 247.971" stroke="#263238" stroke-miterlimit="10"/>
<path d="M278.434 207.309L252.564 233.896" stroke="#263238" stroke-miterlimit="10"/>
<path d="M199.233 151.979H253.495C258.254 151.979 262.819 153.87 266.184 157.235C269.549 160.601 271.44 165.165 271.44 169.924V326.589H181.288V169.915C181.291 165.157 183.182 160.595 186.547 157.232C189.913 153.869 194.475 151.979 199.233 151.979Z" fill="#263238" stroke="#263238" stroke-linecap="round" stroke-linejoin="round"/>
<path d="M282.071 418.264L234.453 404.257V388.669H231.767V331.119H223.308V388.669H220.621V403.84L173.004 418.264V420.543H173.644C173.277 421.215 173.086 421.97 173.091 422.736C173.088 423.541 173.295 424.333 173.691 425.033C174.087 425.734 174.658 426.32 175.349 426.733C176.041 427.146 176.827 427.372 177.632 427.388C178.437 427.405 179.232 427.212 179.94 426.828C180.647 426.444 181.242 425.882 181.667 425.198C182.092 424.514 182.331 423.732 182.361 422.927C182.391 422.123 182.212 421.324 181.84 420.611C181.468 419.897 180.917 419.292 180.24 418.856L180.337 418.759L223.987 413.511V419.797C223.428 420.475 223.074 421.298 222.965 422.171C222.857 423.043 222.998 423.928 223.373 424.723C223.748 425.518 224.342 426.19 225.084 426.66C225.827 427.131 226.687 427.38 227.566 427.38C228.445 427.38 229.306 427.131 230.049 426.66C230.791 426.19 231.384 425.518 231.759 424.723C232.135 423.928 232.276 423.043 232.167 422.171C232.059 421.298 231.704 420.475 231.146 419.797V413.511L274.699 418.749C273.916 419.211 273.285 419.892 272.886 420.709C272.488 421.526 272.338 422.442 272.455 423.343C272.573 424.245 272.953 425.092 273.548 425.779C274.143 426.466 274.927 426.963 275.802 427.208C276.678 427.453 277.606 427.436 278.471 427.158C279.337 426.88 280.101 426.353 280.67 425.644C281.239 424.935 281.586 424.075 281.67 423.169C281.753 422.264 281.569 421.354 281.14 420.553H282.11L282.071 418.264Z" fill="#263238" stroke="#263238" stroke-linecap="round" stroke-linejoin="round"/>
<path d="M268.646 326.492H185.75C181.85 326.492 178.688 329.654 178.688 333.554V340.664C178.688 344.564 181.85 347.726 185.75 347.726H268.646C272.546 347.726 275.708 344.564 275.708 340.664V333.554C275.708 329.654 272.546 326.492 268.646 326.492Z" fill="white" stroke="#263238" stroke-linecap="round" stroke-linejoin="round"/>
<path d="M261.701 292.057H194.315V329.528H261.701V292.057Z" fill="white" stroke="#263238" stroke-linecap="round" stroke-linejoin="round"/>
<path d="M221.834 184.213L211.514 188.258C211.514 188.258 215.248 211.45 220.244 223.42C225.239 235.39 243.436 254.392 243.436 254.392C243.436 254.392 252.865 240.628 256.153 229.706C259.441 218.784 256.008 188.103 256.008 188.103C253.655 186.733 251.065 185.818 248.374 185.406C243.689 184.659 221.834 184.213 221.834 184.213Z" fill="white" stroke="#263238" stroke-linecap="round" stroke-linejoin="round"/>
<path d="M231.864 200.528L236.636 209.695L228.721 227.164L241.437 246.312L249.217 228.804L239.788 209.355L244.726 200.819L237.693 193.787L231.864 200.528Z" fill="#263238" stroke="#263238" stroke-linecap="round" stroke-linejoin="round"/>
<path d="M223.337 183.165L220.039 184.067L216.896 189.596L224.656 211.596L237.383 198.433L251.293 212.643C251.293 212.643 252.942 190.498 252.942 187.957C252.942 185.415 250.701 184.513 249.062 184.077C247.422 183.64 223.337 183.165 223.337 183.165Z" fill="white" stroke="#263238" stroke-linecap="round" stroke-linejoin="round"/>
<path d="M220.039 184.067C220.039 184.067 221.465 203.962 229.739 221.471C234.017 230.492 242.01 243.169 242.01 242.723C242.01 242.277 249.935 218.784 250.235 210.849C250.536 202.914 252.03 186.007 252.03 186.007C252.03 186.007 267.375 192.118 271.042 194.243C276.726 197.531 283.904 198.278 283.759 202.168C283.7 203.584 284.67 212.838 285.902 224.119C286.096 225.913 295.728 241.307 295.932 243.169C297.998 261.958 290.985 269.874 290.636 269.961C290.044 270.106 277.618 269.961 277.618 269.961C277.618 269.961 284.36 300.632 285.378 302.281L286.426 303.921H232.969L230.738 297.189L228.75 303.921H173.799L181.133 270.553H173.052C173.052 270.553 170.957 266.362 173.799 250.648C176.641 234.934 186.225 195.581 186.225 194.243C186.225 192.904 216.896 187.356 220.039 184.067Z" fill="#4090FF" stroke="#263238" stroke-linecap="round" stroke-linejoin="round"/>
<path d="M231.467 261.812L230.739 297.188" stroke="#263238" stroke-linecap="round" stroke-linejoin="round"/>
<path d="M252.06 248.407C260.896 240.182 264.786 223.721 264.786 223.721L256.851 220.277L264.485 216.533L257.889 188.403C254.155 185.183 251.963 185.27 252.069 185.978C252.069 185.978 250.576 202.885 250.275 210.82C249.974 218.754 242.03 242.277 242.03 242.723C242.03 243.169 233.232 230.831 229.759 221.47C221.67 199.684 220.118 186.55 219.885 184.038C219.882 183.996 219.869 183.956 219.845 183.922C219.822 183.887 219.79 183.86 219.752 183.842C219.714 183.824 219.673 183.817 219.631 183.82C219.59 183.824 219.55 183.839 219.516 183.863C218.401 184.523 215.636 185.066 213.696 186.773C213.153 190.653 212.455 196.279 211.97 202.468C211.077 213.992 211.077 219.074 211.077 219.074L221.398 221.625L214.065 225.816C214.065 225.816 222.145 234.041 228.877 240.182C235.608 246.322 240.09 248.553 240.09 248.553L231.467 261.813C231.467 261.813 243.233 256.642 252.06 248.407Z" fill="#4090FF" stroke="#263238" stroke-linecap="round" stroke-linejoin="round"/>
<path d="M221.834 173.291V186.162C221.834 186.162 225.132 196.929 236.801 197.676C249.072 198.472 251.167 186.609 251.167 186.609V175.231C251.167 175.231 228.449 180.769 221.834 173.291Z" fill="white" stroke="#263238" stroke-linecap="round" stroke-linejoin="round"/>
<path d="M254.009 155.927C254.009 155.927 254.455 150.107 258.044 150.107C261.633 150.107 261.643 156.839 260.741 159.536C259.838 162.232 255.202 164.172 253.708 162.077" fill="white"/>
<path d="M254.009 155.927C254.009 155.927 254.455 150.107 258.044 150.107C261.633 150.107 261.643 156.839 260.741 159.536C259.838 162.232 255.202 164.172 253.708 162.077" stroke="#263238" stroke-linecap="round" stroke-linejoin="round"/>
<path d="M239.12 126.798C239.12 126.798 225.899 126.313 221.33 129.708C216.762 133.103 217.722 142.212 217.722 145.093C217.722 147.973 219.885 172.738 221.33 176.346C222.776 179.954 233.3 185.445 242.476 183.33C251.652 181.215 254.495 174.678 254.97 171.312C255.445 167.946 255.455 142.212 254.97 135.499C254.485 128.787 245.6 127.516 239.12 126.798Z" fill="white" stroke="#263238" stroke-linecap="round" stroke-linejoin="round"/>
<path d="M255.106 138.128C255.106 137.061 255.028 136.188 254.97 135.451C254.494 128.719 245.6 127.516 239.11 126.798C239.11 126.798 225.889 126.313 221.32 129.708C216.752 133.103 217.712 142.212 217.712 145.093C217.712 146.247 218.061 150.913 218.575 156.306C218.807 156.436 219.065 156.511 219.331 156.524C219.596 156.537 219.861 156.488 220.104 156.38C220.347 156.273 220.561 156.11 220.731 155.905C220.9 155.7 221.019 155.459 221.078 155.2C222.048 152.552 220.603 150.156 221.805 146.79C223.008 143.424 223.484 141.261 226.374 139.573C228.186 138.535 230.122 137.73 232.136 137.177C232.136 137.177 226.132 144.142 239.353 143.899C247.937 143.705 252.778 141.921 255.106 138.128Z" fill="#263238" stroke="#263238" stroke-linecap="round" stroke-linejoin="round"/>
<path d="M241.739 150.398C241.739 150.398 243.98 161.02 241.884 162.038C239.789 163.057 238.451 163.387 236.646 159.798" stroke="#263238" stroke-linecap="round" stroke-linejoin="round"/>
<path d="M230.07 161.913C230.07 161.913 229.614 166.86 239.643 166.103" stroke="#263238" stroke-linecap="round" stroke-linejoin="round"/>
<path d="M233.212 150.622C233.212 151.65 232.776 152.494 232.242 152.494C231.709 152.494 231.272 151.65 231.272 150.622C231.272 149.593 231.709 148.75 232.242 148.75C232.776 148.75 233.212 149.584 233.212 150.622Z" fill="#263238"/>
<path d="M248.248 150.622C248.248 151.65 247.811 152.494 247.278 152.494C246.744 152.494 246.308 151.65 246.308 150.622C246.308 149.593 246.744 148.75 247.278 148.75C247.811 148.75 248.248 149.584 248.248 150.622Z" fill="#263238"/>
<path d="M235.502 155.035H227.373C226.952 155.033 226.545 154.885 226.221 154.616C225.897 154.347 225.677 153.974 225.598 153.56L224.531 147.847H237.995L237.296 153.454C237.24 153.89 237.027 154.291 236.697 154.582C236.367 154.873 235.942 155.034 235.502 155.035Z" stroke="#263238" stroke-width="2" stroke-linecap="round" stroke-linejoin="round"/>
<path d="M252.864 155.035H244.736C244.314 155.035 243.906 154.888 243.581 154.619C243.257 154.349 243.038 153.975 242.96 153.56L241.884 147.847H255.357L254.639 153.454C254.583 153.887 254.373 154.285 254.047 154.576C253.721 154.866 253.301 155.029 252.864 155.035Z" stroke="#263238" stroke-width="2" stroke-linecap="round" stroke-linejoin="round"/>
<path d="M237.994 147.847H241.884" stroke="#263238" stroke-width="2" stroke-linecap="round" stroke-linejoin="round"/>
<path d="M224.531 147.847L218.1 150.689" stroke="#263238" stroke-width="2" stroke-linecap="round" stroke-linejoin="round"/>
<path d="M219.593 155.927C219.593 155.927 219.147 150.107 215.548 150.107C211.95 150.107 211.959 156.839 212.861 159.536C213.764 162.232 218.39 164.172 219.894 162.077" fill="white"/>
<path d="M219.593 155.927C219.593 155.927 219.147 150.107 215.548 150.107C211.95 150.107 211.959 156.839 212.861 159.536C213.764 162.232 218.39 164.172 219.894 162.077" stroke="#263238" stroke-linecap="round" stroke-linejoin="round"/>
<path d="M258.345 230.598C256.322 228.689 253.855 227.312 251.167 226.592C250.298 226.292 249.367 226.219 248.461 226.379C247.258 226.379 241.293 224.225 239.799 223.779C238.305 223.333 237.403 224.827 237.859 226.476C238.315 228.125 241.506 229.522 242.709 229.822C243.912 230.123 243.398 230.152 243.398 230.152C243.398 230.152 245.338 234.944 244.445 236.738C243.553 238.533 240.4 242.558 241.448 245.42C242.496 248.281 244.145 249.756 247.433 249.756C250.721 249.756 252.671 249.901 253.418 249.756C254.165 249.61 267.483 256.187 266.028 256.342C264.573 256.497 265.426 243.024 265.426 243.024L258.345 230.598Z" fill="white" stroke="#263238" stroke-linecap="round" stroke-linejoin="round"/>
<path d="M228.12 238.533C228.12 238.533 235.153 235.089 238.596 231.646C242.04 228.202 243.233 227.31 244.416 227.009C245.6 226.709 250.401 225.36 251.594 224.313C252.787 223.265 253.689 225.215 251.895 226.709C250.583 227.775 249.181 228.726 247.704 229.551C246.958 230.007 246.211 232.102 246.211 232.102C246.211 232.102 253.544 228.959 256.085 229.706C258.627 230.453 261.149 232.723 260.993 234.061C260.838 235.4 260.373 234.76 258.724 234.604C257.075 234.449 254.737 233.741 252.904 234.488C251.07 235.235 249.024 237.039 249.024 237.786C249.024 238.533 251.119 238.979 252.768 238.834C254.417 238.688 255.61 238.232 257.249 238.533C258.889 238.834 260.247 239.726 260.392 240.628C260.538 241.53 259.8 241.52 257.996 241.676C256.192 241.831 253.059 241.976 252.011 242.723C250.964 243.47 245.58 246.012 246.482 246.914C247.384 247.816 247.918 247.816 249.712 247.816C251.507 247.816 253.427 246.438 254.475 246.516C255.882 246.623 256.638 246.729 256.638 246.729C256.638 246.729 259.131 246.836 258.908 247.816C258.559 249.387 257.725 249.436 254.106 249.601C251.274 249.736 250.517 249.455 247.976 250.056C245.797 250.758 243.532 251.159 241.244 251.25C236.899 251.55 229.119 249.455 229.119 249.455L228.12 238.533Z" fill="white" stroke="#263238" stroke-linecap="round" stroke-linejoin="round"/>
<path d="M256.356 228.765C256.356 228.765 253.33 225.942 251.593 225.855C249.857 225.767 244.561 230.404 243.833 232.14C243.106 233.877 244.803 233.217 246.21 232.79C247.616 232.363 251.409 230.617 252.709 230.084C253.771 229.561 254.985 229.433 256.133 229.725" fill="white"/>
<path d="M256.356 228.765C256.356 228.765 253.33 225.942 251.593 225.855C249.857 225.767 244.561 230.404 243.833 232.14C243.106 233.877 244.803 233.217 246.21 232.79C247.616 232.363 251.409 230.617 252.709 230.084C253.771 229.561 254.985 229.433 256.133 229.725" stroke="#263238" stroke-linecap="round" stroke-linejoin="round"/>
<path d="M260.256 234.934C260.256 234.934 255.93 232.771 253.224 233.964C250.517 235.157 247.161 237.543 247.161 238.62C247.161 239.697 247.704 239.493 250.071 239.377C252.438 239.26 256.716 238.571 257.288 238.542C258.145 238.641 258.992 238.813 259.82 239.056" fill="white"/>
<path d="M260.256 234.934C260.256 234.934 255.93 232.771 253.224 233.964C250.517 235.157 247.161 237.543 247.161 238.62C247.161 239.697 247.704 239.493 250.071 239.377C252.438 239.26 256.716 238.571 257.288 238.542C258.145 238.641 258.992 238.813 259.82 239.056" stroke="#263238" stroke-linecap="round" stroke-linejoin="round"/>
<path d="M199.544 221.926L195.799 241.976C195.799 241.976 228.275 235.536 229.468 236.438C230.661 237.34 231.748 261.134 231.748 261.134C231.748 261.134 189.814 268.457 184.877 270.106C179.94 271.755 174.847 272.046 173.053 270.553C171.258 269.059 171.113 265.315 172.451 257.943C173.79 250.571 186.672 197.046 186.672 197.046" fill="#4090FF"/>
<path d="M199.544 221.926L195.799 241.976C195.799 241.976 228.275 235.536 229.468 236.438C230.661 237.34 231.748 261.134 231.748 261.134C231.748 261.134 189.814 268.457 184.877 270.106C179.94 271.755 174.847 272.046 173.053 270.553C171.258 269.059 171.113 265.315 172.451 257.943C173.79 250.571 186.672 197.046 186.672 197.046" stroke="#263238" stroke-linecap="round" stroke-linejoin="round"/>
<path d="M274.806 220.578L276.154 243.47L265.378 243.024L264.34 261.997C264.34 261.997 294.041 268.913 295.69 269.757C297.339 270.601 297.039 268.865 298.979 266.013C300.919 263.161 302.577 257.04 302.422 254.373C302.267 251.705 296.136 242.733 295.991 243.15" fill="#4090FF"/>
<path d="M274.806 220.578L276.154 243.47L265.378 243.024L264.34 261.997C264.34 261.997 294.041 268.913 295.69 269.757C297.339 270.601 297.039 268.865 298.979 266.013C300.919 263.161 302.577 257.04 302.422 254.373C302.267 251.705 296.136 242.733 295.991 243.15" stroke="#263238" stroke-linecap="round" stroke-linejoin="round"/>
<path d="M276.154 243.47H286.184" stroke="#263238" stroke-linecap="round" stroke-linejoin="round"/>
<path d="M195.8 241.976L182.481 246.613" stroke="#263238" stroke-linecap="round" stroke-linejoin="round"/>
<path d="M198.981 404.209C198.981 404.209 196.808 413.55 193.772 416.819C190.736 420.087 187.952 422.251 188.127 424.85L188.34 427.459H219.594V419.622C219.594 415.063 217.654 407.012 217.654 403.782C217.654 400.552 198.118 403.995 198.118 403.995" fill="#263238"/>
<path d="M198.981 404.209C198.981 404.209 196.808 413.55 193.772 416.819C190.736 420.087 187.952 422.251 188.127 424.85L188.34 427.459H219.594V419.622C219.594 415.063 217.654 407.012 217.654 403.782C217.654 400.552 198.118 403.995 198.118 403.995" stroke="#263238" stroke-linecap="round" stroke-linejoin="round"/>
<path d="M188.873 422.231C188.342 422.991 188.08 423.906 188.126 424.831L188.34 427.44H219.593V422.231H188.873Z" fill="#586166" stroke="#263238" stroke-linecap="round" stroke-linejoin="round"/>
<path d="M226.112 321.303C226.112 321.303 229.148 301.99 223.939 293.095C218.73 284.2 200.494 283.977 190.3 290.049C180.105 296.121 176.138 306.083 179.824 318.887C183.51 331.691 192.036 331.943 192.036 331.943C192.036 331.943 189.863 349.52 189.863 356.465C189.863 363.41 197.245 406.604 197.245 406.604H218.75C218.75 406.604 225.676 330.421 226.112 321.303Z" fill="#586166" stroke="#263238" stroke-linecap="round" stroke-linejoin="round"/>
<path d="M192.036 331.944L194.199 314.144" stroke="#263238" stroke-linecap="round" stroke-linejoin="round"/>
<path d="M262.157 404.209C262.157 404.209 264.33 413.55 267.366 416.819C270.402 420.087 273.186 422.251 273.012 424.85L272.798 427.459H241.545V419.622C241.545 415.063 243.485 407.012 243.485 403.782C243.485 400.552 263.021 403.995 263.021 403.995" fill="#263238"/>
<path d="M262.157 404.209C262.157 404.209 264.33 413.55 267.366 416.819C270.402 420.087 273.186 422.251 273.012 424.85L272.798 427.459H241.545V419.622C241.545 415.063 243.485 407.012 243.485 403.782C243.485 400.552 263.021 403.995 263.021 403.995" stroke="#263238" stroke-linecap="round" stroke-linejoin="round"/>
<path d="M272.255 422.231C272.789 422.99 273.055 423.905 273.012 424.831L272.798 427.44H241.545V422.231H272.255Z" fill="#586166" stroke="#263238" stroke-linecap="round" stroke-linejoin="round"/>
<path d="M235.026 321.303C235.026 321.303 231.99 301.99 237.199 293.095C242.408 284.2 260.644 283.977 270.839 290.049C281.033 296.121 285.088 306.083 281.392 318.887C277.696 331.691 269.102 331.943 269.102 331.943C269.102 331.943 271.275 349.52 271.275 356.465C271.275 363.41 263.893 406.604 263.893 406.604H242.408C242.408 406.604 235.463 330.421 235.026 321.303Z" fill="#586166" stroke="#263238" stroke-linecap="round" stroke-linejoin="round"/>
<path d="M269.102 331.944L266.93 314.144" stroke="#263238" stroke-linecap="round" stroke-linejoin="round"/>
<path d="M279.491 91.3447H322.424C323.638 91.3447 324.802 91.8271 325.661 92.6857C326.52 93.5443 327.002 94.7089 327.002 95.9231V115.847C327.002 117.061 326.52 118.226 325.661 119.084C324.802 119.943 323.638 120.425 322.424 120.425H309.532L312.898 129.543L302.296 120.425H279.491C278.89 120.425 278.295 120.307 277.739 120.077C277.184 119.847 276.679 119.509 276.254 119.084C275.829 118.659 275.492 118.154 275.262 117.599C275.032 117.044 274.913 116.448 274.913 115.847V95.9231C274.913 95.3219 275.032 94.7265 275.262 94.171C275.492 93.6156 275.829 93.1109 276.254 92.6857C276.679 92.2606 277.184 91.9233 277.739 91.6932C278.295 91.4632 278.89 91.3447 279.491 91.3447Z" fill="#263238" stroke="#263238" stroke-linecap="round" stroke-linejoin="round"/>
<path d="M311.705 107.835C313.082 107.835 314.198 106.719 314.198 105.342C314.198 103.965 313.082 102.849 311.705 102.849C310.328 102.849 309.212 103.965 309.212 105.342C309.212 106.719 310.328 107.835 311.705 107.835Z" fill="#4090FF"/>
<path d="M299.764 107.835C301.141 107.835 302.257 106.719 302.257 105.342C302.257 103.965 301.141 102.849 299.764 102.849C298.388 102.849 297.271 103.965 297.271 105.342C297.271 106.719 298.388 107.835 299.764 107.835Z" fill="#4090FF"/>
<path d="M287.833 107.835C289.21 107.835 290.326 106.719 290.326 105.342C290.326 103.965 289.21 102.849 287.833 102.849C286.456 102.849 285.34 103.965 285.34 105.342C285.34 106.719 286.456 107.835 287.833 107.835Z" fill="#4090FF"/>
<path d="M112.7 253.461L105.163 269.379H126.532L134.069 254.237L112.7 253.461Z" fill="#263238" stroke="#263238" stroke-linecap="round" stroke-linejoin="round"/>
<path d="M159.618 253.461H112.699L120.246 269.379H167.155L159.618 253.461Z" fill="white" stroke="#263238" stroke-linecap="round" stroke-linejoin="round"/>
<path d="M76.2371 291.3H65.6641V427.382H76.2371V291.3Z" fill="#A3A3A3" stroke="#263238" stroke-linecap="round" stroke-linejoin="round"/>
<path d="M414.671 291.65H404.098V427.731H414.671V291.65Z" fill="#A3A3A3" stroke="#263238" stroke-linecap="round" stroke-linejoin="round"/>
<path d="M419.316 268.942H63.3652V400.096H419.316V268.942Z" fill="#A3A3A3" stroke="#263238" stroke-linecap="round" stroke-linejoin="round"/>
<path d="M419.316 268.942H63.3652V282.59H419.316V268.942Z" fill="#263238" stroke="#263238" stroke-linecap="round" stroke-linejoin="round"/>
<path d="M428.386 268.942H54.3057V277.08H428.386V268.942Z" fill="white" stroke="#263238" stroke-linecap="round" stroke-linejoin="round"/>
<path d="M69.0693 389.106C69.0693 389.106 45.0424 337.928 50.2707 336.444C55.499 334.96 66.46 343.118 66.46 343.118C66.46 343.118 34.3142 257.05 42.6271 250.415C50.94 243.78 66.46 277.856 66.46 277.856C66.46 277.856 49.8827 225.195 51.8324 205.165C53.7821 185.134 74.8408 204.427 74.8408 204.427C74.8408 204.427 57.9725 132.482 73.6283 128.767C89.2841 125.052 88.77 211.101 88.77 211.101C88.77 211.101 93.911 149.545 100.187 166.597C106.463 183.65 93.2708 240.773 93.2708 240.773C93.2708 240.773 101.875 221.49 106.657 239.289C111.439 257.089 97.1508 329.024 97.1508 329.024C97.1508 329.024 109.295 317.161 110.43 331.992C111.565 346.823 85.2974 392.85 85.2974 392.85L70.437 394.295L69.0693 389.106Z" fill="#4090FF"/>
<path opacity="0.6" d="M69.0693 389.106C69.0693 389.106 45.0424 337.928 50.2707 336.444C55.499 334.96 66.46 343.118 66.46 343.118C66.46 343.118 34.3142 257.05 42.6271 250.415C50.94 243.78 66.46 277.856 66.46 277.856C66.46 277.856 49.8827 225.195 51.8324 205.165C53.7821 185.134 74.8408 204.427 74.8408 204.427C74.8408 204.427 57.9725 132.482 73.6283 128.767C89.2841 125.052 88.77 211.101 88.77 211.101C88.77 211.101 93.911 149.545 100.187 166.597C106.463 183.65 93.2708 240.773 93.2708 240.773C93.2708 240.773 101.875 221.49 106.657 239.289C111.439 257.089 97.1508 329.024 97.1508 329.024C97.1508 329.024 109.295 317.161 110.43 331.992C111.565 346.823 85.2974 392.85 85.2974 392.85L70.437 394.295L69.0693 389.106Z" fill="white"/>
<path d="M74.2198 391.327C74.2198 391.327 54.1893 355.728 57.9044 349.055C61.6195 342.381 72.7163 357.93 72.7163 357.93C72.7163 357.93 47.4963 294.88 51.2114 288.963C54.9265 283.046 66.7314 308.984 66.7314 308.984C66.7314 308.984 62.2888 222.208 69.6996 225.176C77.1104 228.144 77.9058 269.66 77.9058 269.66C77.9058 269.66 73.4535 171.011 80.1368 173.979C86.8201 176.947 86.0635 286.713 86.0635 286.713C86.0635 286.713 99.4398 244.44 101.642 263.762C103.844 283.085 84.5794 334.96 84.5794 334.96C84.5794 334.96 103.126 294.172 105.347 315.677C107.568 337.182 90.5158 377.233 90.5158 377.233C90.5158 377.233 97.1894 360.918 97.1894 369.822C97.1894 378.727 91.9999 389.843 91.9999 389.843" stroke="#263238" stroke-linecap="round" stroke-linejoin="round"/>
<path d="M101.274 391.045H58.875V427.731H101.274V391.045Z" fill="#263238" stroke="#263238" stroke-miterlimit="10"/>
<path d="M333.976 142.765C333.976 142.765 329.631 149.933 328.981 153.183C328.331 156.432 329.417 157.742 328.544 160.128C327.671 162.514 323.995 162.524 323.995 164.91C323.995 167.296 326.595 169.469 327.468 170.119C328.341 170.769 326.808 173.591 328.331 177.714C329.854 181.836 330.504 187.045 333.103 187.045C335.795 186.903 338.476 186.612 341.135 186.172L342.435 194.097L360.37 192.468C360.37 192.468 360.157 184.708 364.929 181.4C369.702 178.092 379.149 159.478 373.504 147.324C367.859 135.17 344.171 132.784 333.976 142.765Z" fill="white" stroke="#263238" stroke-linecap="round" stroke-linejoin="round"/>
<path d="M328.03 133.763C327.442 135.671 327.206 137.669 327.332 139.661C327.601 143.49 328.792 147.198 330.804 150.467C333.016 154.124 338.312 156.452 339.622 160.351C340.048 161.651 341.135 165.123 344.171 165.996C347.207 166.869 346.567 166.86 345.694 172.718C344.821 178.577 347.43 184.436 352.639 185.959C355.093 186.671 357.684 186.767 360.183 186.237C362.682 185.707 365.012 184.569 366.966 182.923C371.088 179.664 378.897 166.21 379.12 154.056C379.498 132.551 358.304 122.046 339.185 124.665C336.637 124.917 334.221 125.915 332.237 127.533C330.253 129.151 328.79 131.318 328.03 133.763Z" fill="#263238" stroke="#263238" stroke-linecap="round" stroke-linejoin="round"/>
<path d="M351.019 188.539C348.126 188.587 345.276 189.248 342.657 190.479C340.232 191.759 331.803 199.81 329.63 201.149C327.457 202.488 323.335 201.799 325.75 202.885C328.166 203.972 329.873 204.185 333.995 202.672C338.118 201.159 346.799 198.113 349.399 198.113C351.998 198.113 361.553 199.413 362.426 199.636C363.299 199.859 368.935 202.449 368.935 202.449C368.935 202.449 366.112 196.377 362.862 193.341C359.613 190.304 355.578 188.316 351.019 188.539Z" fill="white" stroke="#263238" stroke-linecap="round" stroke-linejoin="round"/>
<path d="M343.967 161.534C343.507 161.718 343.121 162.049 342.87 162.476C342.619 162.902 342.517 163.4 342.58 163.892C342.949 166.755 342.9 169.656 342.434 172.505C341.571 176.191 346.178 176.191 347.187 170.148C347.847 166.152 346.334 160.691 343.967 161.534Z" fill="white" stroke="#263238" stroke-linecap="round" stroke-linejoin="round"/>
<path d="M307.709 211.567C307.709 211.567 305.109 212.867 304.896 219.162C304.682 225.457 293.818 269.738 293.168 276.683C292.518 283.628 296.214 288.177 302.5 290.573C308.785 292.969 320.736 296.859 322.87 295.782C325.004 294.706 329.165 272.337 330.678 262.569C332.191 252.802 313.965 218.919 313.102 217.649C312.239 216.378 309.232 211.79 307.709 211.567Z" fill="white" stroke="#263238" stroke-linecap="round" stroke-linejoin="round"/>
<path d="M321.822 263.442L309.881 281.242" stroke="#263238" stroke-linecap="round" stroke-linejoin="round"/>
<path d="M344.85 342.458L359.923 425.878C359.972 426.139 360.075 426.387 360.226 426.605C360.377 426.823 360.573 427.007 360.8 427.144C361.028 427.28 361.282 427.367 361.545 427.398C361.809 427.429 362.076 427.404 362.329 427.324C362.745 427.187 363.1 426.91 363.334 426.54C363.568 426.17 363.665 425.731 363.609 425.297L352.484 340.654L344.85 342.458Z" fill="white" stroke="#263238" stroke-linecap="round" stroke-linejoin="round"/>
<path d="M328.117 324.233C328.117 324.233 322.471 400.407 322.471 402.58C322.471 404.752 316.651 427.538 316.651 427.538H332.239C332.239 427.538 333.752 424.502 333.752 418.206C333.752 411.911 334.412 398.457 334.412 397.157C334.412 395.857 351.775 328.569 351.775 328.569C351.775 328.569 350.902 321.837 342.434 317.899C333.966 313.96 329.417 322.496 328.117 324.233Z" fill="white" stroke="#263238" stroke-linecap="round" stroke-linejoin="round"/>
<path d="M333.753 418.206C333.753 412.454 334.296 400.746 334.393 397.758C327.166 393.704 322.685 399.107 322.685 399.107C322.559 401.047 322.481 402.308 322.481 402.56C322.481 404.733 316.661 427.518 316.661 427.518H332.239C332.239 427.518 333.753 424.501 333.753 418.206Z" fill="#263238" stroke="#263238" stroke-linecap="round" stroke-linejoin="round"/>
<path d="M332.24 427.537C332.24 427.537 333.753 424.501 333.753 418.206C333.753 415.868 333.85 412.531 333.957 409.204C332.453 407.449 329.204 404.762 325.731 408.874C324.208 410.669 320.202 421.999 318.291 427.537H332.24Z" fill="#4F4F4F" stroke="#263238" stroke-linecap="round" stroke-linejoin="round"/>
<path d="M325.731 408.875L327.031 427.537H330.911L334.18 408.438C334.18 408.438 329.854 403.229 325.731 408.875Z" fill="#263238" stroke="#263238" stroke-linecap="round" stroke-linejoin="round"/>
<path d="M296.427 314.28C296.427 314.28 289.696 321.662 289.046 327.957C288.396 334.252 311.618 400.882 311.618 400.882C311.044 403.682 309.776 406.293 307.932 408.477C304.672 412.599 300.113 418.458 299.463 422.367C298.814 426.276 299.463 427.576 299.463 427.576H314.877C314.877 427.576 320.299 413.686 322.472 410.213C324.645 406.74 323.335 400.009 322.685 396.973C322.035 393.936 316.177 323.835 316.177 323.835C316.177 323.835 311.618 309.032 296.427 314.28Z" fill="white" stroke="#263238" stroke-linecap="round" stroke-linejoin="round"/>
<path d="M322.472 410.175C324.354 407.158 323.626 401.697 322.967 398.321C322.156 397.646 321.199 397.17 320.172 396.929C319.145 396.688 318.076 396.69 317.05 396.934C312.491 398.021 311.618 400.814 311.618 400.814C311.044 403.614 309.777 406.226 307.932 408.409C304.673 412.532 300.114 418.391 299.464 422.3C298.814 426.209 299.464 427.509 299.464 427.509H314.877C314.877 427.509 320.299 413.647 322.472 410.175Z" fill="#263238" stroke="#263238" stroke-linecap="round" stroke-linejoin="round"/>
<path d="M306.952 427.538H314.877C314.877 427.538 319.727 415.18 322.074 410.863C320.91 409.796 317.389 407.071 314.004 409.738C309.882 412.997 309.445 421.029 308.368 424.065C307.854 425.491 307.34 426.674 306.952 427.538Z" fill="#4F4F4F" stroke="#263238" stroke-linecap="round" stroke-linejoin="round"/>
<path d="M314.004 409.738L314.877 427.538H317.69L322.462 410.175C322.462 410.175 318.126 405.839 314.004 409.738Z" fill="#263238" stroke="#263238" stroke-linecap="round" stroke-linejoin="round"/>
<path d="M313.945 240.987C317.554 253.17 320.793 276.014 320.793 278.148C320.793 282.028 309.444 304.464 309.444 304.464C309.444 304.464 296.834 310.972 293.818 315.531C292.417 317.546 291.596 319.907 291.444 322.356C291.292 324.805 291.814 327.249 292.954 329.422C295.127 333.758 298.377 335.717 305.564 337.017C312.752 338.317 379.352 337.017 379.352 337.017C379.352 337.017 386.297 328.549 383.038 315.095C381.525 308.829 379.876 303.387 378.052 295.782C378.052 295.782 385.211 295.996 390.42 291.65C395.629 287.304 395.852 280.582 395.852 275.596C395.852 270.611 392.573 228.92 392.573 224.807C392.573 220.694 392.379 215.476 388.499 212.43C384.619 209.384 375.424 204.67 367.159 200.286C360.66 196.862 355.878 197.463 350.669 197.463C345.46 197.463 339.165 201.343 339.165 201.343C339.165 201.343 310.298 208.938 308.125 210.238C305.952 211.538 306.728 212.857 307.524 217.649" fill="white"/>
<path d="M313.945 240.987C317.554 253.17 320.793 276.014 320.793 278.148C320.793 282.028 309.444 304.464 309.444 304.464C309.444 304.464 296.834 310.972 293.818 315.531C292.417 317.546 291.596 319.907 291.444 322.356C291.292 324.805 291.814 327.249 292.954 329.422C295.127 333.758 298.377 335.717 305.564 337.017C312.752 338.317 379.352 337.017 379.352 337.017C379.352 337.017 386.297 328.549 383.038 315.095C381.525 308.829 379.876 303.387 378.052 295.782C378.052 295.782 385.211 295.996 390.42 291.65C395.629 287.304 395.852 280.582 395.852 275.596C395.852 270.611 392.573 228.92 392.573 224.807C392.573 220.694 392.379 215.476 388.499 212.43C384.619 209.384 375.424 204.67 367.159 200.286C360.66 196.862 355.878 197.463 350.669 197.463C345.46 197.463 339.165 201.343 339.165 201.343C339.165 201.343 310.298 208.938 308.125 210.238C305.952 211.538 306.728 212.857 307.524 217.649" stroke="#263238" stroke-linecap="round" stroke-linejoin="round"/>
<path d="M381.506 223.721C381.506 223.721 372.621 275.345 372.621 278.167C372.621 280.99 378.034 295.782 378.034 295.782" stroke="#263238" stroke-linecap="round" stroke-linejoin="round"/>
<path d="M320.328 280.33C318.194 287.188 309.444 304.464 309.444 304.464C309.444 304.464 296.834 310.972 293.818 315.531C292.417 317.546 291.596 319.907 291.444 322.356C291.292 324.805 291.814 327.249 292.954 329.422C295.127 333.758 298.377 335.717 305.564 337.017C312.752 338.317 379.352 337.017 379.352 337.017C379.352 337.017 386.297 328.549 383.038 315.095C381.525 308.829 379.876 303.387 378.052 295.782L372.62 280.33H320.328Z" fill="#263238" stroke="#263238" stroke-miterlimit="10"/>
<path d="M301.636 341.576L290.413 425.627C290.379 425.89 290.401 426.158 290.478 426.412C290.556 426.666 290.686 426.9 290.862 427.1C291.037 427.299 291.253 427.459 291.496 427.568C291.738 427.677 292 427.732 292.266 427.732C292.702 427.734 293.125 427.583 293.46 427.304C293.795 427.025 294.022 426.638 294.099 426.209L309.445 342.226L301.636 341.576Z" fill="white" stroke="#263238" stroke-linecap="round" stroke-linejoin="round"/>
<path d="M375.89 341.576L387.113 425.627C387.147 425.89 387.125 426.158 387.048 426.412C386.971 426.666 386.84 426.9 386.664 427.1C386.489 427.299 386.273 427.459 386.031 427.568C385.788 427.677 385.526 427.732 385.26 427.732C384.824 427.734 384.401 427.583 384.066 427.304C383.731 427.025 383.504 426.638 383.427 426.209L368.13 342.226L375.89 341.576Z" fill="white" stroke="#263238" stroke-linecap="round" stroke-linejoin="round"/>
<path d="M332.24 341.576L321.017 425.627C320.982 425.89 321.004 426.158 321.082 426.412C321.159 426.666 321.29 426.9 321.465 427.1C321.641 427.299 321.857 427.459 322.099 427.568C322.341 427.677 322.604 427.732 322.87 427.732C323.305 427.732 323.727 427.58 324.062 427.302C324.397 427.024 324.623 426.637 324.703 426.209L340.048 342.226L332.24 341.576Z" fill="white" stroke="#263238" stroke-linecap="round" stroke-linejoin="round"/>
<path d="M388.015 245.41H317.913C317.913 245.41 315.973 261.9 317.05 276.014C318.127 290.127 320.522 308.13 320.086 319.664C319.649 331.197 313.141 337.463 313.141 337.463H297.514C297.144 337.462 296.777 337.534 296.435 337.674C296.092 337.815 295.781 338.022 295.519 338.284C295.256 338.545 295.048 338.855 294.906 339.197C294.764 339.539 294.691 339.906 294.691 340.276C294.691 340.647 294.764 341.014 294.906 341.356C295.048 341.699 295.256 342.01 295.518 342.272C295.78 342.534 296.091 342.742 296.434 342.884C296.776 343.026 297.143 343.099 297.514 343.099H381.904C387.019 334.847 389.515 325.239 389.063 315.541C388.413 299.051 381.904 280.379 384.067 267.138C386.23 253.898 388.015 245.41 388.015 245.41Z" fill="#4090FF" stroke="#263238" stroke-linecap="round" stroke-linejoin="round"/>
<path d="M369.459 144.617C369.459 144.617 365.123 146.354 364.9 150.437C364.677 154.521 363.386 168.664 358.178 176.695C352.969 184.727 358.178 197.531 370.982 199.481C383.786 201.43 394.203 182.118 389.412 162.155C384.62 142.192 373.804 142.881 369.459 144.617Z" fill="#263238" stroke="#263238" stroke-linecap="round" stroke-linejoin="round"/>
<path d="M22.8096 427.731H447.02" stroke="#263238" stroke-linecap="round" stroke-linejoin="round"/>
</svg>
