<?xml version="1.0" encoding="UTF-8"?>
<svg id="Layer_1" data-name="Layer 1" xmlns="http://www.w3.org/2000/svg" viewBox="0 0 800 591.38">
  <defs>
    <style>
      .cls-1 {
        fill: #040438;
      }

      .cls-2 {
        fill: #e6c13c;
      }

      .cls-3 {
        fill: #036;
      }
    </style>
  </defs>
  <g>
    <path class="cls-3" d="M181.29,238.24c-16.73,0-30.29,13.56-30.29,30.29s13.56,30.29,30.29,30.29,30.29-13.56,30.29-30.29-13.56-30.29-30.29-30.29ZM181.29,294.91c-14.57,0-26.38-11.81-26.38-26.38s11.81-26.38,26.38-26.38,26.38,11.81,26.38,26.38-11.81,26.38-26.38,26.38Z"/>
    <path class="cls-3" d="M181.41,233.24c11.38,0,21.46,5.58,27.65,14.15v-10.35h10.82l-28.58-19.7-52.8,20.02h14.05v11.83c6.03-9.59,16.71-15.96,28.87-15.96Z"/>
    <path class="cls-2" d="M231.2,328.53c0-13.74-11.24-24.98-24.98-24.98h-48.48c-13.74,0-24.98,11.24-24.98,24.98v48.89h76.27l-10.71-10.68c-12.53,7.83-29.21,5.29-38.78-6.46-10.35-12.73-8.43-31.45,4.31-41.81,12.73-10.35,31.45-8.43,41.81,4.31,9.01,11.08,8.72,26.68.11,37.37l17.32,17.28h8.12v-48.89Z"/>
  </g>
  <g>
    <path class="cls-3" d="M261.03,226.87v83.41h-13.82v-83.41h13.82ZM255.91,226.87h42.07v12.39h-42.07v-12.39ZM255.91,259.52h39.68v12.16h-39.68v-12.16ZM255.91,297.89h42.07v12.39h-42.07v-12.39Z"/>
    <path class="cls-3" d="M313.7,267.45c2.46-4.25,5.74-7.51,9.83-9.77,4.09-2.26,8.48-3.4,13.17-3.4s8.64,1.15,12.09,3.46c3.46,2.31,6.2,5.58,8.22,9.83,2.03,4.25,3.04,9.35,3.04,15.31s-1.01,10.96-3.04,15.25c-2.03,4.29-4.77,7.59-8.22,9.89-3.46,2.3-7.49,3.46-12.09,3.46s-9.08-1.13-13.17-3.4c-4.09-2.26-7.37-5.54-9.83-9.83-2.46-4.29-3.69-9.41-3.69-15.37s1.23-11.18,3.69-15.43ZM325.62,292.29c1.51,2.62,3.51,4.61,6.02,5.96,2.5,1.35,5.22,2.03,8.16,2.03,2.46,0,4.9-.67,7.33-2.03,2.42-1.35,4.41-3.32,5.96-5.9,1.55-2.58,2.32-5.74,2.32-9.47s-.78-6.89-2.32-9.47c-1.55-2.58-3.54-4.55-5.96-5.9-2.42-1.35-4.87-2.03-7.33-2.03-2.94,0-5.66.68-8.16,2.03-2.5,1.35-4.51,3.34-6.02,5.96-1.51,2.62-2.26,5.76-2.26,9.41s.75,6.79,2.26,9.41ZM368.4,217.34v92.95h-12.99v-92.95h12.99Z"/>
    <path class="cls-3" d="M400.09,297.89c1.67,2.14,4.21,3.22,7.63,3.22,2.46,0,4.61-.5,6.43-1.49,1.83-.99,3.26-2.42,4.29-4.29,1.03-1.87,1.55-4.03,1.55-6.49v-33.37h12.87v54.81h-12.87v-8.46c-1.75,3.18-3.99,5.58-6.73,7.21-2.74,1.63-6.02,2.44-9.83,2.44-6.12,0-10.83-1.91-14.12-5.72-3.3-3.81-4.95-8.98-4.95-15.49v-34.79h13.23v33.37c0,3.89.83,6.91,2.5,9.06Z"/>
    <path class="cls-2" d="M436.91,323.75c1.67.79,3.5,1.19,5.48,1.19,1.83,0,3.61-.77,5.36-2.32,1.75-1.55,2.62-4.23,2.62-8.04v-87.7h14.42v90.33c0,3.49-.56,6.51-1.67,9.06-1.11,2.54-2.64,4.65-4.59,6.32-1.95,1.67-4.27,2.88-6.97,3.63-2.7.75-5.64,1.13-8.82,1.13-2.46,0-4.84-.34-7.15-1.01-2.3-.68-4.33-1.49-6.08-2.44-1.75-.95-3.14-1.87-4.17-2.74l7.51-10.37c1.03,1.19,2.38,2.18,4.05,2.98Z"/>
    <path class="cls-2" d="M481.9,267.98c2.58-4.29,6.1-7.64,10.55-10.07,4.45-2.42,9.49-3.63,15.13-3.63s10.67,1.21,15.07,3.63c4.41,2.42,7.92,5.78,10.55,10.07,2.62,4.29,3.93,9.26,3.93,14.9s-1.31,10.51-3.93,14.84c-2.62,4.33-6.14,7.71-10.55,10.13-4.41,2.42-9.43,3.63-15.07,3.63s-10.69-1.21-15.13-3.63c-4.45-2.42-7.97-5.8-10.55-10.13-2.58-4.33-3.87-9.27-3.87-14.84s1.29-10.61,3.87-14.9ZM493.4,291.87c1.43,2.58,3.38,4.61,5.84,6.08,2.46,1.47,5.24,2.2,8.34,2.2s5.78-.73,8.28-2.2c2.5-1.47,4.47-3.5,5.9-6.08,1.43-2.58,2.15-5.58,2.15-9s-.72-6.43-2.15-9.06c-1.43-2.62-3.4-4.65-5.9-6.08-2.5-1.43-5.26-2.14-8.28-2.14s-5.88.71-8.34,2.14c-2.46,1.43-4.41,3.46-5.84,6.08-1.43,2.62-2.15,5.64-2.15,9.06s.71,6.42,2.15,9Z"/>
    <path class="cls-2" d="M561.79,310.28h-12.99v-92.95h12.99v92.95ZM603.5,298.25c-2.46,4.29-5.72,7.57-9.77,9.83-4.05,2.26-8.46,3.4-13.23,3.4s-8.56-1.15-12.1-3.46c-3.54-2.3-6.3-5.6-8.28-9.89-1.99-4.29-2.98-9.37-2.98-15.25s.99-11.06,2.98-15.31c1.98-4.25,4.75-7.53,8.28-9.83,3.53-2.3,7.57-3.46,12.1-3.46,4.77,0,9.17,1.13,13.23,3.4,4.05,2.26,7.31,5.52,9.77,9.77,2.46,4.25,3.69,9.4,3.69,15.43s-1.23,11.08-3.69,15.37ZM591.58,273.46c-1.51-2.62-3.52-4.61-6.02-5.96-2.5-1.35-5.26-2.03-8.28-2.03-2.46,0-4.89.68-7.27,2.03-2.38,1.35-4.35,3.32-5.9,5.9-1.55,2.58-2.32,5.74-2.32,9.47s.77,6.89,2.32,9.47c1.55,2.58,3.52,4.55,5.9,5.9,2.38,1.35,4.81,2.03,7.27,2.03,3.02,0,5.78-.67,8.28-2.03,2.5-1.35,4.51-3.34,6.02-5.96,1.51-2.62,2.26-5.76,2.26-9.41s-.76-6.79-2.26-9.41Z"/>
    <path class="cls-2" d="M615.42,267.39v-11.92h50.05l-31.34,42.9h28.36v11.92h-51.24l31.94-42.9h-27.76Z"/>
  </g>
  <g>
    <path d="M246.57,352.06c.64-1.57,1.53-2.94,2.68-4.1,1.15-1.16,2.51-2.08,4.07-2.74,1.56-.66,3.25-.99,5.08-.99s3.55.33,5.09.99,2.9,1.57,4.05,2.74c1.15,1.16,2.05,2.53,2.68,4.1.64,1.57.95,3.28.95,5.13s-.32,3.53-.95,5.11-1.53,2.96-2.68,4.12c-1.15,1.16-2.5,2.08-4.05,2.74-1.55.66-3.25.99-5.09.99s-3.52-.33-5.08-.99c-1.56-.66-2.92-1.57-4.07-2.74-1.15-1.16-2.05-2.54-2.68-4.12s-.95-3.29-.95-5.11.32-3.56.95-5.13ZM250.1,362.26c.83,1.49,1.96,2.66,3.4,3.53,1.44.86,3.07,1.3,4.9,1.3s3.49-.43,4.91-1.3c1.43-.86,2.56-2.04,3.38-3.53.83-1.49,1.24-3.18,1.24-5.08s-.41-3.59-1.24-5.08c-.83-1.49-1.96-2.66-3.38-3.53s-3.07-1.3-4.91-1.3-3.46.43-4.9,1.3c-1.44.86-2.57,2.04-3.4,3.53s-1.24,3.18-1.24,5.08.41,3.59,1.24,5.08Z"/>
    <path d="M275.14,377.7v-24.48h2.88v24.48h-2.88ZM290.76,366.11c-.74,1.3-1.73,2.29-2.97,2.99-1.24.7-2.61,1.04-4.12,1.04-1.37,0-2.57-.35-3.62-1.04-1.04-.7-1.86-1.69-2.45-2.99s-.88-2.83-.88-4.61.29-3.34.88-4.63c.59-1.28,1.4-2.27,2.45-2.97s2.25-1.04,3.62-1.04c1.51,0,2.89.35,4.12,1.04,1.24.7,2.23,1.69,2.97,2.97.74,1.28,1.12,2.83,1.12,4.63s-.37,3.31-1.12,4.61ZM288.19,358.27c-.52-.89-1.2-1.56-2.05-2.02-.85-.46-1.79-.68-2.83-.68-.84,0-1.67.23-2.48.68-.82.46-1.49,1.13-2.02,2.02-.53.89-.79,1.97-.79,3.24s.26,2.35.79,3.24c.53.89,1.2,1.56,2.02,2.02.82.46,1.64.68,2.48.68,1.03,0,1.97-.23,2.83-.68.85-.46,1.54-1.13,2.05-2.02.52-.89.77-1.97.77-3.24s-.26-2.35-.77-3.24Z"/>
    <path d="M295.65,377.7v-24.48h2.88v24.48h-2.88ZM311.28,366.11c-.74,1.3-1.73,2.29-2.97,2.99-1.24.7-2.61,1.04-4.12,1.04-1.37,0-2.57-.35-3.62-1.04-1.04-.7-1.86-1.69-2.45-2.99s-.88-2.83-.88-4.61.29-3.34.88-4.63c.59-1.28,1.4-2.27,2.45-2.97s2.25-1.04,3.62-1.04c1.51,0,2.89.35,4.12,1.04,1.24.7,2.23,1.69,2.97,2.97.74,1.28,1.12,2.83,1.12,4.63s-.37,3.31-1.12,4.61ZM308.7,358.27c-.52-.89-1.2-1.56-2.05-2.02-.85-.46-1.79-.68-2.83-.68-.84,0-1.67.23-2.48.68-.82.46-1.49,1.13-2.02,2.02-.53.89-.79,1.97-.79,3.24s.26,2.35.79,3.24c.53.89,1.2,1.56,2.02,2.02.82.46,1.64.68,2.48.68,1.03,0,1.97-.23,2.83-.68.85-.46,1.54-1.13,2.05-2.02.52-.89.77-1.97.77-3.24s-.26-2.35-.77-3.24Z"/>
    <path d="M316.05,357.04c.76-1.3,1.78-2.32,3.08-3.06s2.75-1.12,4.36-1.12,3.09.37,4.37,1.12,2.3,1.76,3.06,3.06c.76,1.3,1.13,2.78,1.13,4.46s-.38,3.14-1.13,4.45c-.76,1.31-1.78,2.33-3.06,3.08-1.28.74-2.74,1.12-4.37,1.12s-3.06-.37-4.36-1.12c-1.3-.74-2.32-1.77-3.08-3.08-.76-1.31-1.13-2.79-1.13-4.45s.38-3.17,1.13-4.46ZM318.57,364.56c.49.89,1.16,1.59,2.02,2.11.85.52,1.82.77,2.9.77s2.05-.26,2.9-.77c.85-.52,1.52-1.22,2.02-2.11.49-.89.74-1.91.74-3.06s-.25-2.18-.74-3.08c-.49-.9-1.16-1.6-2.02-2.11-.85-.5-1.82-.76-2.9-.76s-2.05.25-2.9.76c-.85.5-1.52,1.21-2.02,2.11-.49.9-.74,1.93-.74,3.08s.25,2.17.74,3.06Z"/>
    <path d="M338.89,369.78h-2.88v-16.56h2.88v16.56ZM342.85,355.76c-.31-.13-.71-.2-1.19-.2-.72,0-1.28.18-1.69.54-.41.36-.69.85-.85,1.48s-.23,1.33-.23,2.12h-1.3c0-1.32.23-2.49.7-3.51.47-1.02,1.07-1.83,1.82-2.43.74-.6,1.5-.9,2.27-.9.6,0,1.16.08,1.67.23.52.16.99.46,1.42.92l-1.58,2.38c-.38-.29-.73-.5-1.04-.63Z"/>
    <path d="M354.12,353.22v2.7h-8.28v-2.7h8.28ZM351.42,347.47v22.32h-2.88v-22.32h2.88Z"/>
    <path d="M360.77,366.36c.6.72,1.48,1.08,2.63,1.08.84,0,1.58-.17,2.21-.52s1.13-.83,1.48-1.46c.35-.62.52-1.34.52-2.16v-10.08h2.88v16.56h-2.88v-2.59c-.55.98-1.24,1.72-2.05,2.21-.82.49-1.78.74-2.88.74-1.73,0-3.11-.59-4.14-1.76-1.03-1.18-1.55-2.75-1.55-4.72v-10.44h2.88v10.08c0,1.32.3,2.34.9,3.06Z"/>
    <path d="M385.61,356.61c-.6-.7-1.48-1.04-2.63-1.04-.84,0-1.58.17-2.21.52-.64.35-1.13.83-1.48,1.46s-.52,1.34-.52,2.16v10.08h-2.88v-16.56h2.88v2.59c.55-1.01,1.24-1.75,2.07-2.23.83-.48,1.78-.72,2.86-.72,1.75,0,3.14.58,4.16,1.75,1.02,1.16,1.53,2.74,1.53,4.73v10.44h-2.88v-10.08c0-1.37-.3-2.4-.9-3.1Z"/>
    <path d="M395.39,344.98c.4-.38.86-.58,1.39-.58s1.02.19,1.4.58c.38.38.58.85.58,1.4s-.19.99-.58,1.39c-.38.4-.85.59-1.4.59s-.99-.2-1.39-.59-.59-.86-.59-1.39.2-1.02.59-1.4ZM398.21,353.22v16.56h-2.88v-16.56h2.88Z"/>
    <path d="M409.91,353.22v2.7h-8.28v-2.7h8.28ZM407.21,347.47v22.32h-2.88v-22.32h2.88Z"/>
    <path d="M413.39,344.98c.4-.38.86-.58,1.39-.58s1.02.19,1.4.58c.38.38.58.85.58,1.4s-.19.99-.58,1.39c-.38.4-.85.59-1.4.59s-.99-.2-1.39-.59-.59-.86-.59-1.39.2-1.02.59-1.4ZM416.21,353.22v16.56h-2.88v-16.56h2.88Z"/>
    <path d="M424.47,369.05c-1.19-.73-2.11-1.75-2.77-3.04s-.99-2.8-.99-4.5.34-3.24,1.03-4.54c.68-1.3,1.64-2.3,2.88-3.02,1.24-.72,2.67-1.08,4.3-1.08s3.03.34,4.19,1.03c1.16.68,2.06,1.66,2.68,2.93.62,1.27.94,2.78.94,4.54,0,.17,0,.34-.02.52-.01.18-.02.29-.02.34h-14.15v-2.45h11.88l-1.15,1.66c.07-.12.14-.31.22-.56.07-.25.11-.46.11-.63,0-.98-.2-1.84-.59-2.56-.4-.72-.94-1.28-1.64-1.69-.7-.41-1.51-.61-2.45-.61-1.1,0-2.05.23-2.83.7-.78.47-1.38,1.14-1.8,2.02-.42.88-.64,1.95-.67,3.22,0,1.3.2,2.4.61,3.31.41.91,1.01,1.61,1.8,2.09.79.48,1.75.72,2.88.72s2.12-.25,2.99-.74c.86-.49,1.6-1.24,2.2-2.25l2.34,1.48c-.86,1.39-1.95,2.44-3.26,3.15-1.31.71-2.85,1.06-4.63,1.06-1.54,0-2.9-.37-4.09-1.1Z"/>
    <path d="M442.53,366.11c.43.43.93.77,1.49,1.03.56.25,1.18.38,1.85.38.82,0,1.46-.19,1.93-.56s.7-.88.7-1.53c0-.58-.19-1.06-.56-1.46-.37-.4-.85-.73-1.42-1.01-.58-.28-1.19-.53-1.84-.77-.72-.29-1.45-.63-2.18-1.03-.73-.4-1.34-.91-1.84-1.55s-.74-1.43-.74-2.39.26-1.8.77-2.45c.52-.65,1.19-1.13,2.02-1.44.83-.31,1.69-.47,2.57-.47s1.72.14,2.5.43c.78.29,1.47.67,2.07,1.15.6.48,1.07,1.03,1.4,1.66l-2.3,1.48c-.46-.62-1.03-1.14-1.71-1.55-.68-.41-1.46-.61-2.32-.61-.6,0-1.12.13-1.55.4-.43.26-.65.67-.65,1.22,0,.43.17.82.5,1.15.34.34.77.64,1.3.9.53.26,1.08.52,1.66.76.96.38,1.84.8,2.63,1.24s1.42.98,1.89,1.6c.47.62.7,1.43.7,2.41,0,1.44-.52,2.64-1.57,3.6-1.04.96-2.42,1.44-4.12,1.44-1.1,0-2.1-.2-2.99-.59-.89-.4-1.64-.91-2.25-1.53s-1.07-1.26-1.39-1.91l2.27-1.4c.34.5.72.97,1.15,1.4Z"/>
    <path d="M473.02,353.22v2.7h-8.28v-2.7h8.28ZM471.88,344.39c-.32-.11-.63-.16-.92-.16-.36,0-.67.1-.92.31-.25.2-.45.55-.59,1.03-.14.48-.22,1.12-.22,1.91v22.32h-2.88v-22.68c0-1.32.19-2.4.58-3.24.38-.84.93-1.47,1.64-1.89s1.57-.63,2.57-.63c.53,0,1,.07,1.4.22.41.14.76.32,1.06.54s.53.44.7.68l-1.58,2.38c-.24-.41-.52-.67-.85-.77Z"/>
    <path d="M475.99,357.04c.76-1.3,1.78-2.32,3.08-3.06s2.75-1.12,4.36-1.12,3.09.37,4.37,1.12,2.3,1.76,3.06,3.06c.76,1.3,1.13,2.78,1.13,4.46s-.38,3.14-1.13,4.45c-.76,1.31-1.78,2.33-3.06,3.08-1.28.74-2.74,1.12-4.37,1.12s-3.06-.37-4.36-1.12c-1.3-.74-2.32-1.77-3.08-3.08-.76-1.31-1.13-2.79-1.13-4.45s.38-3.17,1.13-4.46ZM478.51,364.56c.49.89,1.16,1.59,2.02,2.11.85.52,1.82.77,2.9.77s2.05-.26,2.9-.77c.85-.52,1.52-1.22,2.02-2.11.49-.89.74-1.91.74-3.06s-.25-2.18-.74-3.08c-.49-.9-1.16-1.6-2.02-2.11-.85-.5-1.82-.76-2.9-.76s-2.05.25-2.9.76c-.85.5-1.52,1.21-2.02,2.11-.49.9-.74,1.93-.74,3.08s.25,2.17.74,3.06Z"/>
    <path d="M498.83,369.78h-2.88v-16.56h2.88v16.56ZM502.79,355.76c-.31-.13-.71-.2-1.19-.2-.72,0-1.28.18-1.69.54-.41.36-.69.85-.85,1.48s-.23,1.33-.23,2.12h-1.3c0-1.32.23-2.49.7-3.51.47-1.02,1.07-1.83,1.82-2.43.74-.6,1.5-.9,2.27-.9.6,0,1.16.08,1.67.23.52.16.99.46,1.42.92l-1.58,2.38c-.38-.29-.73-.5-1.04-.63Z"/>
    <path d="M521.42,369.05c-1.19-.73-2.11-1.75-2.77-3.04s-.99-2.8-.99-4.5.34-3.24,1.03-4.54c.68-1.3,1.64-2.3,2.88-3.02,1.24-.72,2.67-1.08,4.3-1.08s3.03.34,4.19,1.03c1.16.68,2.06,1.66,2.68,2.93.62,1.27.94,2.78.94,4.54,0,.17,0,.34-.02.52-.01.18-.02.29-.02.34h-14.15v-2.45h11.88l-1.15,1.66c.07-.12.14-.31.22-.56.07-.25.11-.46.11-.63,0-.98-.2-1.84-.59-2.56-.4-.72-.94-1.28-1.64-1.69-.7-.41-1.51-.61-2.45-.61-1.1,0-2.05.23-2.83.7-.78.47-1.38,1.14-1.8,2.02-.42.88-.64,1.95-.67,3.22,0,1.3.2,2.4.61,3.31.41.91,1.01,1.61,1.8,2.09.79.48,1.75.72,2.88.72s2.12-.25,2.99-.74c.86-.49,1.6-1.24,2.2-2.25l2.34,1.48c-.86,1.39-1.95,2.44-3.26,3.15-1.31.71-2.85,1.06-4.63,1.06-1.54,0-2.9-.37-4.09-1.1Z"/>
    <path d="M537.31,356.88c.74-1.28,1.74-2.27,2.99-2.97,1.25-.7,2.62-1.04,4.1-1.04,1.39,0,2.6.35,3.64,1.04,1.03.7,1.84,1.69,2.43,2.97.59,1.28.88,2.83.88,4.63s-.29,3.31-.88,4.61-1.4,2.29-2.43,2.99c-1.03.7-2.24,1.04-3.64,1.04-1.49,0-2.86-.35-4.1-1.04-1.25-.7-2.25-1.69-2.99-2.99-.74-1.3-1.12-2.83-1.12-4.61s.37-3.34,1.12-4.63ZM539.88,364.74c.52.89,1.21,1.56,2.07,2.02.86.46,1.8.68,2.81.68.84,0,1.67-.23,2.48-.68.82-.46,1.49-1.13,2.02-2.02.53-.89.79-1.97.79-3.24s-.26-2.35-.79-3.24c-.53-.89-1.2-1.56-2.02-2.02-.82-.46-1.64-.68-2.48-.68-1.01,0-1.94.23-2.81.68-.86.46-1.55,1.13-2.07,2.02-.52.89-.77,1.97-.77,3.24s.26,2.35.77,3.24ZM552.93,341.71v28.08h-2.88v-28.08h2.88Z"/>
    <path d="M561.93,366.36c.6.72,1.48,1.08,2.63,1.08.84,0,1.58-.17,2.21-.52s1.13-.83,1.48-1.46c.35-.62.52-1.34.52-2.16v-10.08h2.88v16.56h-2.88v-2.59c-.55.98-1.24,1.72-2.05,2.21-.82.49-1.78.74-2.88.74-1.73,0-3.11-.59-4.14-1.76-1.03-1.18-1.55-2.75-1.55-4.72v-10.44h2.88v10.08c0,1.32.3,2.34.9,3.06Z"/>
    <path d="M579.08,364.56c.49.89,1.16,1.59,2.02,2.11.85.52,1.82.77,2.9.77.89,0,1.72-.14,2.5-.41.78-.28,1.46-.65,2.03-1.12.58-.47.98-.97,1.22-1.49v3.6c-.58.67-1.4,1.19-2.47,1.57-1.07.37-2.17.56-3.29.56-1.61,0-3.06-.37-4.36-1.12-1.3-.74-2.32-1.77-3.08-3.08-.76-1.31-1.13-2.79-1.13-4.45s.38-3.17,1.13-4.46,1.78-2.32,3.08-3.06,2.75-1.12,4.36-1.12c1.13,0,2.23.19,3.29.56,1.07.37,1.89.89,2.47,1.57v3.6c-.24-.55-.65-1.06-1.22-1.51s-1.25-.82-2.03-1.1c-.78-.28-1.61-.41-2.5-.41-1.08,0-2.05.25-2.9.76-.85.5-1.52,1.21-2.02,2.11-.49.9-.74,1.93-.74,3.08s.25,2.17.74,3.06Z"/>
    <path d="M596,366.29c.3.46.72.8,1.26,1.03.54.23,1.16.34,1.85.34.89,0,1.69-.18,2.39-.54.71-.36,1.27-.87,1.69-1.53s.63-1.42.63-2.29l.58,2.16c0,1.06-.32,1.93-.95,2.63s-1.42,1.21-2.34,1.55-1.84.5-2.75.5c-1.01,0-1.95-.21-2.83-.63-.88-.42-1.58-1.03-2.11-1.82-.53-.79-.79-1.75-.79-2.88,0-1.61.57-2.9,1.71-3.87,1.14-.97,2.73-1.46,4.77-1.46,1.2,0,2.2.14,3.01.41.8.28,1.45.59,1.93.94s.8.63.97.85v1.69c-.84-.58-1.71-.99-2.59-1.24s-1.83-.38-2.84-.38c-.94,0-1.7.12-2.29.36-.59.24-1.03.58-1.31,1.01-.29.43-.43.95-.43,1.55s.15,1.16.45,1.62ZM593.72,354.92c.62-.46,1.48-.91,2.57-1.37,1.09-.46,2.41-.68,3.94-.68,1.3,0,2.43.2,3.4.59.97.4,1.73.97,2.27,1.71.54.74.81,1.66.81,2.74v11.88h-2.88v-11.48c0-.58-.1-1.05-.29-1.42s-.46-.67-.81-.88c-.35-.22-.75-.37-1.21-.47-.46-.1-.94-.14-1.44-.14-.82,0-1.55.1-2.21.29-.66.19-1.22.42-1.67.68-.46.26-.82.49-1.08.68l-1.4-2.12Z"/>
    <path d="M617.33,353.22v2.7h-8.28v-2.7h8.28ZM614.63,347.47v22.32h-2.88v-22.32h2.88Z"/>
    <path d="M619.91,357.04c.76-1.3,1.78-2.32,3.08-3.06s2.75-1.12,4.36-1.12,3.09.37,4.37,1.12,2.3,1.76,3.06,3.06c.76,1.3,1.13,2.78,1.13,4.46s-.38,3.14-1.13,4.45c-.76,1.31-1.78,2.33-3.06,3.08-1.28.74-2.74,1.12-4.37,1.12s-3.06-.37-4.36-1.12c-1.3-.74-2.32-1.77-3.08-3.08-.76-1.31-1.13-2.79-1.13-4.45s.38-3.17,1.13-4.46ZM622.43,364.56c.49.89,1.16,1.59,2.02,2.11.85.52,1.82.77,2.9.77s2.05-.26,2.9-.77c.85-.52,1.52-1.22,2.02-2.11.49-.89.74-1.91.74-3.06s-.25-2.18-.74-3.08c-.49-.9-1.16-1.6-2.02-2.11-.85-.5-1.82-.76-2.9-.76s-2.05.25-2.9.76c-.85.5-1.52,1.21-2.02,2.11-.49.9-.74,1.93-.74,3.08s.25,2.17.74,3.06Z"/>
    <path d="M642.75,369.78h-2.88v-16.56h2.88v16.56ZM646.71,355.76c-.31-.13-.71-.2-1.19-.2-.72,0-1.28.18-1.69.54-.41.36-.69.85-.85,1.48s-.23,1.33-.23,2.12h-1.3c0-1.32.23-2.49.7-3.51.47-1.02,1.07-1.83,1.82-2.43.74-.6,1.5-.9,2.27-.9.6,0,1.16.08,1.67.23.52.16.99.46,1.42.92l-1.58,2.38c-.38-.29-.73-.5-1.04-.63Z"/>
    <path d="M654.05,366.11c.43.43.93.77,1.49,1.03.56.25,1.18.38,1.85.38.82,0,1.46-.19,1.93-.56s.7-.88.7-1.53c0-.58-.19-1.06-.56-1.46-.37-.4-.85-.73-1.42-1.01-.58-.28-1.19-.53-1.84-.77-.72-.29-1.45-.63-2.18-1.03-.73-.4-1.34-.91-1.84-1.55s-.74-1.43-.74-2.39.26-1.8.77-2.45c.52-.65,1.19-1.13,2.02-1.44.83-.31,1.69-.47,2.57-.47s1.72.14,2.5.43c.78.29,1.47.67,2.07,1.15.6.48,1.07,1.03,1.4,1.66l-2.3,1.48c-.46-.62-1.03-1.14-1.71-1.55-.68-.41-1.46-.61-2.32-.61-.6,0-1.12.13-1.55.4-.43.26-.65.67-.65,1.22,0,.43.17.82.5,1.15.34.34.77.64,1.3.9.53.26,1.08.52,1.66.76.96.38,1.84.8,2.63,1.24s1.42.98,1.89,1.6c.47.62.7,1.43.7,2.41,0,1.44-.52,2.64-1.57,3.6-1.04.96-2.42,1.44-4.12,1.44-1.1,0-2.1-.2-2.99-.59-.89-.4-1.64-.91-2.25-1.53s-1.07-1.26-1.39-1.91l2.27-1.4c.34.5.72.97,1.15,1.4Z"/>
  </g>
  <rect class="cls-1" x="474.27" y="327.47" width="188.56" height="1"/>
  <rect class="cls-1" x="244.18" y="327.47" width="175.12" height="1"/>
</svg>