<svg width="48" height="48" viewBox="0 0 48 48" fill="none" xmlns="http://www.w3.org/2000/svg">
<path d="M48 7.5C48 3.35786 44.6421 0 40.5 0H7.5C3.35786 0 0 3.35786 0 7.5V40.5C0 44.6421 3.35786 48 7.5 48H40.5C44.6421 48 48 44.6421 48 40.5V7.5Z" fill="#E5E5E5"/>
<path fill-rule="evenodd" clip-rule="evenodd" d="M35.7446 24.2728C35.7446 23.4218 35.6683 22.6037 35.5265 21.8182H24.2246V26.46H30.6828C30.4046 27.96 29.5592 29.2309 28.2883 30.0819V33.0928H32.1664C34.4355 31.0037 35.7446 27.9273 35.7446 24.2728Z" fill="#4285F4"/>
<path fill-rule="evenodd" clip-rule="evenodd" d="M24.2237 36C27.4637 36 30.18 34.9254 32.1655 33.0927L28.2873 30.0818C27.2128 30.8018 25.8382 31.2272 24.2237 31.2272C21.0982 31.2272 18.4527 29.1163 17.5091 26.2799H13.5V29.389C15.4745 33.3109 19.5327 36 24.2237 36Z" fill="#34A853"/>
<path fill-rule="evenodd" clip-rule="evenodd" d="M17.5101 26.2799C17.2701 25.5599 17.1337 24.7909 17.1337 23.9999C17.1337 23.209 17.2701 22.4399 17.5101 21.7199V18.6108H13.501C12.6882 20.2308 12.2246 22.0636 12.2246 23.9999C12.2246 25.9363 12.6882 27.769 13.501 29.389L17.5101 26.2799Z" fill="#FBBC05"/>
<path fill-rule="evenodd" clip-rule="evenodd" d="M24.2237 16.7727C25.9855 16.7727 27.5673 17.3782 28.8109 18.5673L32.2528 15.1255C30.1746 13.1891 27.4582 12 24.2237 12C19.5327 12 15.4745 14.6891 13.5 18.6109L17.5091 21.72C18.4527 18.8837 21.0982 16.7727 24.2237 16.7727Z" fill="#EA4335"/>
</svg>
